<svg xmlns="http://www.w3.org/2000/svg" xmlns:xlink="http://www.w3.org/1999/xlink" width="500" zoomAndPan="magnify" viewBox="0 0 375 374.999991" height="500" preserveAspectRatio="xMidYMid meet" version="1.0"><defs><clipPath id="id1"><path d="M 112.5 66.636719 L 262.5 66.636719 L 262.5 133 L 112.5 133 Z M 112.5 66.636719 " clip-rule="nonzero"/></clipPath><clipPath id="id2"><path d="M 112.5 66.636719 L 262.5 66.636719 L 262.5 126 L 112.5 126 Z M 112.5 66.636719 " clip-rule="nonzero"/></clipPath><clipPath id="id3"><path d="M 171 129 L 204 129 L 204 144.636719 L 171 144.636719 Z M 171 129 " clip-rule="nonzero"/></clipPath><clipPath id="id4"><path d="M 113 166.914062 L 262 166.914062 L 262 315.414062 L 113 315.414062 Z M 113 166.914062 " clip-rule="nonzero"/></clipPath><clipPath id="id5"><path d="M 240.761719 189.429688 C 226.964844 175.203125 208.464844 167.203125 188.660156 166.910156 C 188.285156 166.90625 187.910156 166.902344 187.539062 166.902344 C 147.265625 166.902344 114.019531 199.710938 113.421875 240.039062 C 113.128906 259.867188 120.5625 278.621094 134.359375 292.851562 C 148.15625 307.082031 166.65625 315.078125 186.460938 315.371094 C 186.835938 315.375 187.210938 315.378906 187.582031 315.378906 C 227.851562 315.378906 261.101562 282.570312 261.699219 242.242188 C 261.992188 222.414062 254.554688 203.65625 240.761719 189.429688 Z M 187.539062 171.890625 L 188.585938 171.898438 C 207.058594 172.171875 224.320312 179.632812 237.183594 192.90625 C 249.328125 205.429688 256.179688 221.714844 256.683594 239.050781 L 217.117188 239.050781 C 216.054688 223.84375 203.496094 211.683594 188 211.457031 L 187.554688 211.453125 C 172.273438 211.453125 159.546875 223.265625 158.074219 238.242188 L 118.480469 238.242188 C 120.019531 201.488281 150.597656 171.890625 187.539062 171.890625 Z M 212.226562 241.507812 C 212.027344 254.925781 200.964844 265.839844 187.566406 265.839844 L 187.195312 265.839844 C 180.605469 265.738281 174.449219 263.078125 169.859375 258.34375 C 165.269531 253.609375 162.796875 247.371094 162.894531 240.777344 C 163.089844 227.359375 174.152344 216.441406 187.550781 216.441406 L 187.925781 216.445312 C 201.527344 216.644531 212.425781 227.886719 212.226562 241.507812 Z M 187.582031 310.390625 L 186.535156 310.382812 C 168.0625 310.109375 150.804688 302.648438 137.9375 289.375 C 125.792969 276.851562 118.941406 260.566406 118.4375 243.230469 L 158 243.230469 C 158.480469 250.214844 161.363281 256.738281 166.285156 261.820312 C 171.804688 267.511719 179.203125 270.707031 187.121094 270.828125 L 187.570312 270.832031 C 202.847656 270.832031 215.574219 259.015625 217.050781 244.039062 L 256.640625 244.039062 C 255.097656 280.792969 224.519531 310.390625 187.582031 310.390625 Z M 187.582031 310.390625 " clip-rule="nonzero"/></clipPath><linearGradient x1="5.307502" gradientTransform="matrix(1.660834, 0, 0, 1.662934, 104.458292, 157.602736)" y1="94.965499" x2="94.762495" gradientUnits="userSpaceOnUse" y2="5.510502" id="id6"><stop stop-opacity="1" stop-color="rgb(100%, 95.298767%, 23.098755%)" offset="0"/><stop stop-opacity="1" stop-color="rgb(100%, 95.298767%, 23.098755%)" offset="0.015625"/><stop stop-opacity="1" stop-color="rgb(99.964905%, 94.889832%, 22.654724%)" offset="0.0195313"/><stop stop-opacity="1" stop-color="rgb(99.92981%, 94.480896%, 22.210693%)" offset="0.0234375"/><stop stop-opacity="1" stop-color="rgb(99.888611%, 94.003296%, 21.69342%)" offset="0.0273438"/><stop stop-opacity="1" stop-color="rgb(99.848938%, 93.527222%, 21.177673%)" offset="0.03125"/><stop stop-opacity="1" stop-color="rgb(99.807739%, 93.051147%, 20.6604%)" offset="0.0351563"/><stop stop-opacity="1" stop-color="rgb(99.768066%, 92.575073%, 20.143127%)" offset="0.0390625"/><stop stop-opacity="1" stop-color="rgb(99.726868%, 92.098999%, 19.625854%)" offset="0.0429688"/><stop stop-opacity="1" stop-color="rgb(99.685669%, 91.622925%, 19.110107%)" offset="0.046875"/><stop stop-opacity="1" stop-color="rgb(99.64447%, 91.146851%, 18.592834%)" offset="0.0507812"/><stop stop-opacity="1" stop-color="rgb(99.604797%, 90.670776%, 18.077087%)" offset="0.0546875"/><stop stop-opacity="1" stop-color="rgb(99.601746%, 90.289307%, 17.677307%)" offset="0.0585938"/><stop stop-opacity="1" stop-color="rgb(99.598694%, 89.907837%, 17.279053%)" offset="0.0625"/><stop stop-opacity="1" stop-color="rgb(99.598694%, 89.533997%, 16.889954%)" offset="0.0664062"/><stop stop-opacity="1" stop-color="rgb(99.598694%, 89.161682%, 16.500854%)" offset="0.0703125"/><stop stop-opacity="1" stop-color="rgb(99.598694%, 88.787842%, 16.110229%)" offset="0.0742188"/><stop stop-opacity="1" stop-color="rgb(99.598694%, 88.414001%, 15.72113%)" offset="0.078125"/><stop stop-opacity="1" stop-color="rgb(99.598694%, 88.040161%, 15.332031%)" offset="0.0820312"/><stop stop-opacity="1" stop-color="rgb(99.598694%, 87.666321%, 14.942932%)" offset="0.0859375"/><stop stop-opacity="1" stop-color="rgb(99.598694%, 87.29248%, 14.552307%)" offset="0.0898438"/><stop stop-opacity="1" stop-color="rgb(99.598694%, 86.91864%, 14.163208%)" offset="0.09375"/><stop stop-opacity="1" stop-color="rgb(99.598694%, 86.5448%, 13.774109%)" offset="0.0976562"/><stop stop-opacity="1" stop-color="rgb(99.598694%, 86.170959%, 13.38501%)" offset="0.101563"/><stop stop-opacity="1" stop-color="rgb(99.598694%, 85.797119%, 12.994385%)" offset="0.105469"/><stop stop-opacity="1" stop-color="rgb(99.598694%, 85.424805%, 12.605286%)" offset="0.109375"/><stop stop-opacity="1" stop-color="rgb(99.598694%, 85.050964%, 12.216187%)" offset="0.113281"/><stop stop-opacity="1" stop-color="rgb(99.598694%, 84.677124%, 11.827087%)" offset="0.117188"/><stop stop-opacity="1" stop-color="rgb(99.598694%, 84.303284%, 11.436462%)" offset="0.121094"/><stop stop-opacity="1" stop-color="rgb(99.598694%, 83.929443%, 11.047363%)" offset="0.125"/><stop stop-opacity="1" stop-color="rgb(99.589539%, 83.621216%, 10.72998%)" offset="0.128906"/><stop stop-opacity="1" stop-color="rgb(99.581909%, 83.312988%, 10.412598%)" offset="0.132812"/><stop stop-opacity="1" stop-color="rgb(99.560547%, 83.091736%, 10.191345%)" offset="0.136719"/><stop stop-opacity="1" stop-color="rgb(99.54071%, 82.870483%, 9.971619%)" offset="0.140625"/><stop stop-opacity="1" stop-color="rgb(99.519348%, 82.649231%, 9.750366%)" offset="0.144531"/><stop stop-opacity="1" stop-color="rgb(99.499512%, 82.429504%, 9.53064%)" offset="0.148438"/><stop stop-opacity="1" stop-color="rgb(99.478149%, 82.208252%, 9.309387%)" offset="0.152344"/><stop stop-opacity="1" stop-color="rgb(99.458313%, 81.988525%, 9.088135%)" offset="0.15625"/><stop stop-opacity="1" stop-color="rgb(99.436951%, 81.767273%, 8.866882%)" offset="0.160156"/><stop stop-opacity="1" stop-color="rgb(99.417114%, 81.547546%, 8.647156%)" offset="0.164062"/><stop stop-opacity="1" stop-color="rgb(99.395752%, 81.326294%, 8.425903%)" offset="0.167969"/><stop stop-opacity="1" stop-color="rgb(99.375916%, 81.106567%, 8.206177%)" offset="0.171875"/><stop stop-opacity="1" stop-color="rgb(99.356079%, 80.885315%, 7.984924%)" offset="0.175781"/><stop stop-opacity="1" stop-color="rgb(99.336243%, 80.665588%, 7.765198%)" offset="0.179688"/><stop stop-opacity="1" stop-color="rgb(99.31488%, 80.444336%, 7.543945%)" offset="0.183594"/><stop stop-opacity="1" stop-color="rgb(99.295044%, 80.224609%, 7.324219%)" offset="0.1875"/><stop stop-opacity="1" stop-color="rgb(99.273682%, 80.003357%, 7.102966%)" offset="0.191406"/><stop stop-opacity="1" stop-color="rgb(99.253845%, 79.78363%, 6.88324%)" offset="0.195312"/><stop stop-opacity="1" stop-color="rgb(99.232483%, 79.562378%, 6.661987%)" offset="0.199219"/><stop stop-opacity="1" stop-color="rgb(99.212646%, 79.342651%, 6.442261%)" offset="0.203125"/><stop stop-opacity="1" stop-color="rgb(99.205017%, 79.231262%, 6.318665%)" offset="0.210938"/><stop stop-opacity="1" stop-color="rgb(99.198914%, 79.063416%, 6.1203%)" offset="0.21875"/><stop stop-opacity="1" stop-color="rgb(99.198914%, 78.892517%, 5.891418%)" offset="0.234375"/><stop stop-opacity="1" stop-color="rgb(99.198914%, 78.663635%, 5.586243%)" offset="0.25"/><stop stop-opacity="1" stop-color="rgb(99.198914%, 78.434753%, 5.281067%)" offset="0.265625"/><stop stop-opacity="1" stop-color="rgb(99.198914%, 78.205872%, 4.975891%)" offset="0.28125"/><stop stop-opacity="1" stop-color="rgb(99.191284%, 78.00293%, 4.800415%)" offset="0.289063"/><stop stop-opacity="1" stop-color="rgb(99.142456%, 77.688599%, 4.986572%)" offset="0.292969"/><stop stop-opacity="1" stop-color="rgb(99.102783%, 77.464294%, 5.197144%)" offset="0.296875"/><stop stop-opacity="1" stop-color="rgb(99.061584%, 77.238464%, 5.406189%)" offset="0.300781"/><stop stop-opacity="1" stop-color="rgb(99.020386%, 77.01416%, 5.615234%)" offset="0.304688"/><stop stop-opacity="1" stop-color="rgb(98.979187%, 76.78833%, 5.82428%)" offset="0.308594"/><stop stop-opacity="1" stop-color="rgb(98.939514%, 76.564026%, 6.034851%)" offset="0.3125"/><stop stop-opacity="1" stop-color="rgb(98.898315%, 76.338196%, 6.243896%)" offset="0.316406"/><stop stop-opacity="1" stop-color="rgb(98.857117%, 76.113892%, 6.452942%)" offset="0.320312"/><stop stop-opacity="1" stop-color="rgb(98.815918%, 75.888062%, 6.661987%)" offset="0.324219"/><stop stop-opacity="1" stop-color="rgb(98.774719%, 75.663757%, 6.872559%)" offset="0.328125"/><stop stop-opacity="1" stop-color="rgb(98.733521%, 75.437927%, 7.081604%)" offset="0.332031"/><stop stop-opacity="1" stop-color="rgb(98.693848%, 75.213623%, 7.290649%)" offset="0.335938"/><stop stop-opacity="1" stop-color="rgb(98.652649%, 74.987793%, 7.499695%)" offset="0.339844"/><stop stop-opacity="1" stop-color="rgb(98.61145%, 74.761963%, 7.710266%)" offset="0.34375"/><stop stop-opacity="1" stop-color="rgb(98.570251%, 74.536133%, 7.919312%)" offset="0.347656"/><stop stop-opacity="1" stop-color="rgb(98.530579%, 74.311829%, 8.128357%)" offset="0.351562"/><stop stop-opacity="1" stop-color="rgb(98.48938%, 74.085999%, 8.337402%)" offset="0.355469"/><stop stop-opacity="1" stop-color="rgb(98.448181%, 73.861694%, 8.547974%)" offset="0.359375"/><stop stop-opacity="1" stop-color="rgb(98.406982%, 73.635864%, 8.757019%)" offset="0.363281"/><stop stop-opacity="1" stop-color="rgb(98.36731%, 73.41156%, 8.966064%)" offset="0.367188"/><stop stop-opacity="1" stop-color="rgb(98.326111%, 73.18573%, 9.17511%)" offset="0.371094"/><stop stop-opacity="1" stop-color="rgb(98.284912%, 72.961426%, 9.385681%)" offset="0.375"/><stop stop-opacity="1" stop-color="rgb(98.243713%, 72.735596%, 9.594727%)" offset="0.378906"/><stop stop-opacity="1" stop-color="rgb(98.204041%, 72.511292%, 9.803772%)" offset="0.382812"/><stop stop-opacity="1" stop-color="rgb(98.162842%, 72.285461%, 10.012817%)" offset="0.386719"/><stop stop-opacity="1" stop-color="rgb(98.121643%, 72.061157%, 10.223389%)" offset="0.390625"/><stop stop-opacity="1" stop-color="rgb(98.080444%, 71.835327%, 10.432434%)" offset="0.394531"/><stop stop-opacity="1" stop-color="rgb(98.040771%, 71.611023%, 10.641479%)" offset="0.398438"/><stop stop-opacity="1" stop-color="rgb(97.999573%, 71.385193%, 10.850525%)" offset="0.402344"/><stop stop-opacity="1" stop-color="rgb(97.958374%, 71.160889%, 11.061096%)" offset="0.40625"/><stop stop-opacity="1" stop-color="rgb(97.917175%, 70.935059%, 11.270142%)" offset="0.410156"/><stop stop-opacity="1" stop-color="rgb(97.877502%, 70.710754%, 11.479187%)" offset="0.414063"/><stop stop-opacity="1" stop-color="rgb(97.836304%, 70.484924%, 11.688232%)" offset="0.417969"/><stop stop-opacity="1" stop-color="rgb(97.795105%, 70.26062%, 11.898804%)" offset="0.421875"/><stop stop-opacity="1" stop-color="rgb(97.753906%, 70.03479%, 12.107849%)" offset="0.425781"/><stop stop-opacity="1" stop-color="rgb(97.714233%, 69.810486%, 12.316895%)" offset="0.429688"/><stop stop-opacity="1" stop-color="rgb(97.673035%, 69.584656%, 12.52594%)" offset="0.433594"/><stop stop-opacity="1" stop-color="rgb(97.631836%, 69.358826%, 12.736511%)" offset="0.4375"/><stop stop-opacity="1" stop-color="rgb(97.590637%, 69.132996%, 12.945557%)" offset="0.441406"/><stop stop-opacity="1" stop-color="rgb(97.550964%, 68.908691%, 13.154602%)" offset="0.445313"/><stop stop-opacity="1" stop-color="rgb(97.509766%, 68.682861%, 13.363647%)" offset="0.449219"/><stop stop-opacity="1" stop-color="rgb(97.468567%, 68.458557%, 13.574219%)" offset="0.453125"/><stop stop-opacity="1" stop-color="rgb(97.427368%, 68.232727%, 13.783264%)" offset="0.457031"/><stop stop-opacity="1" stop-color="rgb(97.387695%, 68.008423%, 13.99231%)" offset="0.460938"/><stop stop-opacity="1" stop-color="rgb(97.346497%, 67.782593%, 14.201355%)" offset="0.464844"/><stop stop-opacity="1" stop-color="rgb(97.305298%, 67.558289%, 14.411926%)" offset="0.46875"/><stop stop-opacity="1" stop-color="rgb(97.264099%, 67.332458%, 14.620972%)" offset="0.472656"/><stop stop-opacity="1" stop-color="rgb(97.224426%, 67.108154%, 14.830017%)" offset="0.476563"/><stop stop-opacity="1" stop-color="rgb(97.183228%, 66.882324%, 15.039062%)" offset="0.480469"/><stop stop-opacity="1" stop-color="rgb(97.142029%, 66.65802%, 15.249634%)" offset="0.484375"/><stop stop-opacity="1" stop-color="rgb(97.10083%, 66.43219%, 15.458679%)" offset="0.488281"/><stop stop-opacity="1" stop-color="rgb(97.059631%, 66.207886%, 15.667725%)" offset="0.492188"/><stop stop-opacity="1" stop-color="rgb(97.018433%, 65.982056%, 15.87677%)" offset="0.496094"/><stop stop-opacity="1" stop-color="rgb(96.97876%, 65.757751%, 16.087341%)" offset="0.5"/><stop stop-opacity="1" stop-color="rgb(96.937561%, 65.531921%, 16.296387%)" offset="0.503906"/><stop stop-opacity="1" stop-color="rgb(96.896362%, 65.307617%, 16.505432%)" offset="0.507812"/><stop stop-opacity="1" stop-color="rgb(96.855164%, 65.081787%, 16.714478%)" offset="0.511719"/><stop stop-opacity="1" stop-color="rgb(96.815491%, 64.857483%, 16.925049%)" offset="0.515625"/><stop stop-opacity="1" stop-color="rgb(96.774292%, 64.631653%, 17.134094%)" offset="0.519531"/><stop stop-opacity="1" stop-color="rgb(96.733093%, 64.407349%, 17.34314%)" offset="0.523438"/><stop stop-opacity="1" stop-color="rgb(96.691895%, 64.181519%, 17.552185%)" offset="0.527344"/><stop stop-opacity="1" stop-color="rgb(96.652222%, 63.957214%, 17.762756%)" offset="0.53125"/><stop stop-opacity="1" stop-color="rgb(96.611023%, 63.731384%, 17.971802%)" offset="0.535156"/><stop stop-opacity="1" stop-color="rgb(96.569824%, 63.505554%, 18.180847%)" offset="0.539062"/><stop stop-opacity="1" stop-color="rgb(96.528625%, 63.279724%, 18.389893%)" offset="0.542969"/><stop stop-opacity="1" stop-color="rgb(96.488953%, 63.05542%, 18.600464%)" offset="0.546875"/><stop stop-opacity="1" stop-color="rgb(96.447754%, 62.82959%, 18.809509%)" offset="0.550781"/><stop stop-opacity="1" stop-color="rgb(96.406555%, 62.605286%, 19.018555%)" offset="0.554688"/><stop stop-opacity="1" stop-color="rgb(96.365356%, 62.379456%, 19.2276%)" offset="0.558594"/><stop stop-opacity="1" stop-color="rgb(96.325684%, 62.155151%, 19.438171%)" offset="0.5625"/><stop stop-opacity="1" stop-color="rgb(96.284485%, 61.929321%, 19.647217%)" offset="0.566406"/><stop stop-opacity="1" stop-color="rgb(96.243286%, 61.705017%, 19.856262%)" offset="0.570312"/><stop stop-opacity="1" stop-color="rgb(96.202087%, 61.479187%, 20.065308%)" offset="0.574219"/><stop stop-opacity="1" stop-color="rgb(96.162415%, 61.254883%, 20.275879%)" offset="0.578125"/><stop stop-opacity="1" stop-color="rgb(96.121216%, 61.029053%, 20.484924%)" offset="0.582031"/><stop stop-opacity="1" stop-color="rgb(96.080017%, 60.804749%, 20.69397%)" offset="0.585938"/><stop stop-opacity="1" stop-color="rgb(96.038818%, 60.578918%, 20.903015%)" offset="0.589844"/><stop stop-opacity="1" stop-color="rgb(95.999146%, 60.354614%, 21.113586%)" offset="0.59375"/><stop stop-opacity="1" stop-color="rgb(95.957947%, 60.128784%, 21.322632%)" offset="0.597656"/><stop stop-opacity="1" stop-color="rgb(95.916748%, 59.90448%, 21.531677%)" offset="0.601563"/><stop stop-opacity="1" stop-color="rgb(95.875549%, 59.67865%, 21.740723%)" offset="0.605469"/><stop stop-opacity="1" stop-color="rgb(95.835876%, 59.454346%, 21.951294%)" offset="0.609375"/><stop stop-opacity="1" stop-color="rgb(95.794678%, 59.228516%, 22.160339%)" offset="0.613281"/><stop stop-opacity="1" stop-color="rgb(95.753479%, 59.004211%, 22.369385%)" offset="0.617188"/><stop stop-opacity="1" stop-color="rgb(95.71228%, 58.778381%, 22.57843%)" offset="0.621094"/><stop stop-opacity="1" stop-color="rgb(95.672607%, 58.554077%, 22.789001%)" offset="0.625"/><stop stop-opacity="1" stop-color="rgb(95.631409%, 58.328247%, 22.998047%)" offset="0.628906"/><stop stop-opacity="1" stop-color="rgb(95.59021%, 58.102417%, 23.207092%)" offset="0.632812"/><stop stop-opacity="1" stop-color="rgb(95.549011%, 57.876587%, 23.416138%)" offset="0.636719"/><stop stop-opacity="1" stop-color="rgb(95.507812%, 57.652283%, 23.626709%)" offset="0.640625"/><stop stop-opacity="1" stop-color="rgb(95.466614%, 57.426453%, 23.835754%)" offset="0.644531"/><stop stop-opacity="1" stop-color="rgb(95.426941%, 57.202148%, 24.0448%)" offset="0.648438"/><stop stop-opacity="1" stop-color="rgb(95.385742%, 56.976318%, 24.253845%)" offset="0.652344"/><stop stop-opacity="1" stop-color="rgb(95.344543%, 56.752014%, 24.464417%)" offset="0.65625"/><stop stop-opacity="1" stop-color="rgb(95.301819%, 56.498718%, 24.571228%)" offset="0.660156"/><stop stop-opacity="1" stop-color="rgb(95.26062%, 56.245422%, 24.679565%)" offset="0.664063"/><stop stop-opacity="1" stop-color="rgb(95.21637%, 55.955505%, 24.656677%)" offset="0.667969"/><stop stop-opacity="1" stop-color="rgb(95.172119%, 55.667114%, 24.635315%)" offset="0.671875"/><stop stop-opacity="1" stop-color="rgb(95.127869%, 55.377197%, 24.612427%)" offset="0.675781"/><stop stop-opacity="1" stop-color="rgb(95.083618%, 55.088806%, 24.591064%)" offset="0.679688"/><stop stop-opacity="1" stop-color="rgb(95.039368%, 54.798889%, 24.568176%)" offset="0.683594"/><stop stop-opacity="1" stop-color="rgb(94.995117%, 54.510498%, 24.546814%)" offset="0.6875"/><stop stop-opacity="1" stop-color="rgb(94.950867%, 54.220581%, 24.523926%)" offset="0.691406"/><stop stop-opacity="1" stop-color="rgb(94.906616%, 53.93219%, 24.502563%)" offset="0.695313"/><stop stop-opacity="1" stop-color="rgb(94.862366%, 53.642273%, 24.479675%)" offset="0.699219"/><stop stop-opacity="1" stop-color="rgb(94.818115%, 53.353882%, 24.458313%)" offset="0.703125"/><stop stop-opacity="1" stop-color="rgb(94.773865%, 53.063965%, 24.435425%)" offset="0.707031"/><stop stop-opacity="1" stop-color="rgb(94.729614%, 52.775574%, 24.414062%)" offset="0.710938"/><stop stop-opacity="1" stop-color="rgb(94.685364%, 52.485657%, 24.391174%)" offset="0.714844"/><stop stop-opacity="1" stop-color="rgb(94.641113%, 52.197266%, 24.369812%)" offset="0.71875"/><stop stop-opacity="1" stop-color="rgb(94.596863%, 51.907349%, 24.346924%)" offset="0.722656"/><stop stop-opacity="1" stop-color="rgb(94.552612%, 51.618958%, 24.325562%)" offset="0.726562"/><stop stop-opacity="1" stop-color="rgb(94.508362%, 51.329041%, 24.302673%)" offset="0.730469"/><stop stop-opacity="1" stop-color="rgb(94.464111%, 51.040649%, 24.281311%)" offset="0.734375"/><stop stop-opacity="1" stop-color="rgb(94.419861%, 50.750732%, 24.258423%)" offset="0.738281"/><stop stop-opacity="1" stop-color="rgb(94.377136%, 50.462341%, 24.237061%)" offset="0.742188"/><stop stop-opacity="1" stop-color="rgb(94.332886%, 50.172424%, 24.215698%)" offset="0.746094"/><stop stop-opacity="1" stop-color="rgb(94.288635%, 49.884033%, 24.194336%)" offset="0.75"/><stop stop-opacity="1" stop-color="rgb(94.244385%, 49.594116%, 24.171448%)" offset="0.753906"/><stop stop-opacity="1" stop-color="rgb(94.200134%, 49.305725%, 24.150085%)" offset="0.757812"/><stop stop-opacity="1" stop-color="rgb(94.155884%, 49.015808%, 24.127197%)" offset="0.761719"/><stop stop-opacity="1" stop-color="rgb(94.111633%, 48.727417%, 24.105835%)" offset="0.765625"/><stop stop-opacity="1" stop-color="rgb(94.067383%, 48.4375%, 24.082947%)" offset="0.769531"/><stop stop-opacity="1" stop-color="rgb(94.023132%, 48.149109%, 24.061584%)" offset="0.773438"/><stop stop-opacity="1" stop-color="rgb(93.978882%, 47.859192%, 24.038696%)" offset="0.777344"/><stop stop-opacity="1" stop-color="rgb(93.934631%, 47.570801%, 24.017334%)" offset="0.78125"/><stop stop-opacity="1" stop-color="rgb(93.890381%, 47.280884%, 23.994446%)" offset="0.785156"/><stop stop-opacity="1" stop-color="rgb(93.84613%, 46.992493%, 23.973083%)" offset="0.789062"/><stop stop-opacity="1" stop-color="rgb(93.80188%, 46.702576%, 23.950195%)" offset="0.792969"/><stop stop-opacity="1" stop-color="rgb(93.757629%, 46.414185%, 23.928833%)" offset="0.796875"/><stop stop-opacity="1" stop-color="rgb(93.713379%, 46.124268%, 23.905945%)" offset="0.800781"/><stop stop-opacity="1" stop-color="rgb(93.669128%, 45.835876%, 23.884583%)" offset="0.804688"/><stop stop-opacity="1" stop-color="rgb(93.624878%, 45.545959%, 23.861694%)" offset="0.808594"/><stop stop-opacity="1" stop-color="rgb(93.580627%, 45.257568%, 23.840332%)" offset="0.8125"/><stop stop-opacity="1" stop-color="rgb(93.536377%, 44.967651%, 23.817444%)" offset="0.816406"/><stop stop-opacity="1" stop-color="rgb(93.492126%, 44.67926%, 23.796082%)" offset="0.820313"/><stop stop-opacity="1" stop-color="rgb(93.447876%, 44.389343%, 23.773193%)" offset="0.824219"/><stop stop-opacity="1" stop-color="rgb(93.403625%, 44.100952%, 23.751831%)" offset="0.828125"/><stop stop-opacity="1" stop-color="rgb(93.359375%, 43.811035%, 23.728943%)" offset="0.832031"/><stop stop-opacity="1" stop-color="rgb(93.315125%, 43.521118%, 23.707581%)" offset="0.835938"/><stop stop-opacity="1" stop-color="rgb(93.270874%, 43.231201%, 23.684692%)" offset="0.839844"/><stop stop-opacity="1" stop-color="rgb(93.226624%, 42.94281%, 23.66333%)" offset="0.84375"/><stop stop-opacity="1" stop-color="rgb(93.182373%, 42.652893%, 23.640442%)" offset="0.847656"/><stop stop-opacity="1" stop-color="rgb(93.138123%, 42.364502%, 23.61908%)" offset="0.851562"/><stop stop-opacity="1" stop-color="rgb(93.093872%, 42.074585%, 23.596191%)" offset="0.855469"/><stop stop-opacity="1" stop-color="rgb(93.049622%, 41.786194%, 23.574829%)" offset="0.859375"/><stop stop-opacity="1" stop-color="rgb(93.005371%, 41.496277%, 23.551941%)" offset="0.863281"/><stop stop-opacity="1" stop-color="rgb(92.961121%, 41.207886%, 23.530579%)" offset="0.867188"/><stop stop-opacity="1" stop-color="rgb(92.913818%, 40.827942%, 23.506165%)" offset="0.871094"/><stop stop-opacity="1" stop-color="rgb(92.868042%, 40.449524%, 23.48175%)" offset="0.875"/><stop stop-opacity="1" stop-color="rgb(92.81311%, 39.852905%, 23.452759%)" offset="0.878906"/><stop stop-opacity="1" stop-color="rgb(92.758179%, 39.256287%, 23.423767%)" offset="0.882812"/><stop stop-opacity="1" stop-color="rgb(92.703247%, 38.658142%, 23.394775%)" offset="0.886719"/><stop stop-opacity="1" stop-color="rgb(92.649841%, 38.061523%, 23.365784%)" offset="0.890625"/><stop stop-opacity="1" stop-color="rgb(92.59491%, 37.464905%, 23.336792%)" offset="0.894531"/><stop stop-opacity="1" stop-color="rgb(92.541504%, 36.868286%, 23.309326%)" offset="0.898438"/><stop stop-opacity="1" stop-color="rgb(92.486572%, 36.270142%, 23.280334%)" offset="0.902344"/><stop stop-opacity="1" stop-color="rgb(92.433167%, 35.673523%, 23.251343%)" offset="0.90625"/><stop stop-opacity="1" stop-color="rgb(92.378235%, 35.076904%, 23.222351%)" offset="0.910156"/><stop stop-opacity="1" stop-color="rgb(92.324829%, 34.480286%, 23.193359%)" offset="0.914062"/><stop stop-opacity="1" stop-color="rgb(92.269897%, 33.882141%, 23.164368%)" offset="0.917969"/><stop stop-opacity="1" stop-color="rgb(92.216492%, 33.285522%, 23.135376%)" offset="0.921875"/><stop stop-opacity="1" stop-color="rgb(92.16156%, 32.688904%, 23.106384%)" offset="0.925781"/><stop stop-opacity="1" stop-color="rgb(92.108154%, 32.092285%, 23.077393%)" offset="0.929688"/><stop stop-opacity="1" stop-color="rgb(92.053223%, 31.494141%, 23.048401%)" offset="0.933594"/><stop stop-opacity="1" stop-color="rgb(91.999817%, 30.897522%, 23.019409%)" offset="0.9375"/><stop stop-opacity="1" stop-color="rgb(91.944885%, 30.300903%, 22.990417%)" offset="0.941406"/><stop stop-opacity="1" stop-color="rgb(91.889954%, 29.704285%, 22.961426%)" offset="0.945312"/><stop stop-opacity="1" stop-color="rgb(91.835022%, 29.10614%, 22.932434%)" offset="0.949219"/><stop stop-opacity="1" stop-color="rgb(91.781616%, 28.509521%, 22.903442%)" offset="0.953125"/><stop stop-opacity="1" stop-color="rgb(91.726685%, 27.912903%, 22.874451%)" offset="0.957031"/><stop stop-opacity="1" stop-color="rgb(91.673279%, 27.316284%, 22.845459%)" offset="0.960938"/><stop stop-opacity="1" stop-color="rgb(91.618347%, 26.71814%, 22.816467%)" offset="0.964844"/><stop stop-opacity="1" stop-color="rgb(91.564941%, 26.121521%, 22.787476%)" offset="0.96875"/><stop stop-opacity="1" stop-color="rgb(91.51001%, 25.524902%, 22.758484%)" offset="0.972656"/><stop stop-opacity="1" stop-color="rgb(91.456604%, 24.928284%, 22.729492%)" offset="0.976562"/><stop stop-opacity="1" stop-color="rgb(91.427612%, 24.613953%, 22.714233%)" offset="0.980469"/><stop stop-opacity="1" stop-color="rgb(91.398621%, 24.299622%, 22.698975%)" offset="0.984375"/><stop stop-opacity="1" stop-color="rgb(91.398621%, 24.299622%, 22.698975%)" offset="1"/></linearGradient></defs><path fill="#ff3d00" d="M 243.75 240.226562 C 243.75 242.070312 243.660156 243.90625 243.480469 245.742188 C 243.296875 247.574219 243.027344 249.394531 242.667969 251.203125 C 242.308594 253.007812 241.863281 254.792969 241.328125 256.554688 C 240.792969 258.320312 240.171875 260.050781 239.46875 261.753906 C 238.761719 263.457031 237.976562 265.117188 237.109375 266.742188 C 236.238281 268.367188 235.292969 269.945312 234.269531 271.476562 C 233.246094 273.011719 232.152344 274.488281 230.980469 275.914062 C 229.8125 277.335938 228.578125 278.699219 227.273438 280.003906 C 225.972656 281.304688 224.609375 282.539062 223.183594 283.710938 C 221.761719 284.878906 220.28125 285.972656 218.75 286.996094 C 217.21875 288.019531 215.640625 288.96875 214.015625 289.835938 C 212.390625 290.703125 210.726562 291.492188 209.027344 292.195312 C 207.324219 292.902344 205.589844 293.519531 203.828125 294.054688 C 202.066406 294.589844 200.28125 295.039062 198.472656 295.398438 C 196.667969 295.757812 194.847656 296.027344 193.011719 296.207031 C 191.179688 296.386719 189.34375 296.476562 187.5 296.476562 C 185.65625 296.476562 183.820312 296.386719 181.988281 296.207031 C 180.152344 296.027344 178.332031 295.757812 176.527344 295.398438 C 174.71875 295.039062 172.933594 294.589844 171.171875 294.054688 C 169.410156 293.519531 167.675781 292.902344 165.972656 292.195312 C 164.273438 291.492188 162.609375 290.703125 160.984375 289.835938 C 159.359375 288.96875 157.78125 288.019531 156.25 286.996094 C 154.71875 285.972656 153.238281 284.878906 151.816406 283.710938 C 150.390625 282.539062 149.027344 281.304688 147.726562 280.003906 C 146.421875 278.699219 145.1875 277.335938 144.019531 275.914062 C 142.847656 274.488281 141.753906 273.011719 140.730469 271.476562 C 139.707031 269.945312 138.761719 268.367188 137.890625 266.742188 C 137.023438 265.117188 136.238281 263.457031 135.53125 261.753906 C 134.828125 260.050781 134.207031 258.320312 133.671875 256.554688 C 133.136719 254.792969 132.691406 253.007812 132.332031 251.203125 C 131.972656 249.394531 131.703125 247.574219 131.519531 245.742188 C 131.339844 243.90625 131.25 242.070312 131.25 240.226562 C 131.25 238.386719 131.339844 236.546875 131.519531 234.714844 C 131.703125 232.878906 131.972656 231.0625 132.332031 229.253906 C 132.691406 227.445312 133.136719 225.660156 133.671875 223.898438 C 134.207031 222.136719 134.828125 220.402344 135.53125 218.703125 C 136.238281 217 137.023438 215.335938 137.890625 213.710938 C 138.761719 212.085938 139.707031 210.507812 140.730469 208.976562 C 141.753906 207.445312 142.847656 205.96875 144.019531 204.542969 C 145.1875 203.117188 146.421875 201.753906 147.726562 200.453125 C 149.027344 199.148438 150.390625 197.914062 151.816406 196.746094 C 153.238281 195.578125 154.71875 194.480469 156.25 193.457031 C 157.78125 192.433594 159.359375 191.488281 160.984375 190.621094 C 162.609375 189.75 164.273438 188.964844 165.972656 188.257812 C 167.675781 187.554688 169.410156 186.933594 171.171875 186.398438 C 172.933594 185.863281 174.71875 185.417969 176.527344 185.058594 C 178.332031 184.699219 180.152344 184.429688 181.988281 184.25 C 183.820312 184.066406 185.65625 183.976562 187.5 183.976562 C 189.34375 183.976562 191.179688 184.066406 193.011719 184.25 C 194.847656 184.429688 196.667969 184.699219 198.472656 185.058594 C 200.28125 185.417969 202.066406 185.863281 203.828125 186.398438 C 205.589844 186.933594 207.324219 187.554688 209.027344 188.257812 C 210.726562 188.964844 212.390625 189.75 214.015625 190.621094 C 215.640625 191.488281 217.21875 192.433594 218.75 193.457031 C 220.28125 194.480469 221.761719 195.578125 223.183594 196.746094 C 224.609375 197.914062 225.972656 199.148438 227.273438 200.453125 C 228.578125 201.753906 229.8125 203.117188 230.980469 204.542969 C 232.152344 205.96875 233.246094 207.445312 234.269531 208.976562 C 235.292969 210.507812 236.238281 212.085938 237.109375 213.710938 C 237.976562 215.335938 238.761719 217 239.46875 218.703125 C 240.171875 220.402344 240.792969 222.136719 241.328125 223.898438 C 241.863281 225.660156 242.308594 227.445312 242.667969 229.253906 C 243.027344 231.0625 243.296875 232.878906 243.480469 234.714844 C 243.660156 236.546875 243.75 238.386719 243.75 240.226562 Z M 243.75 240.226562 " fill-opacity="1" fill-rule="nonzero"/><path fill="#dd2c00" d="M 187.5 183.976562 L 187.472656 183.976562 C 211.070312 191.820312 228.125 213.992188 228.125 240.226562 C 228.125 266.460938 211.070312 288.632812 187.46875 296.476562 L 187.5 296.476562 C 218.566406 296.476562 243.75 271.292969 243.75 240.226562 C 243.75 209.160156 218.566406 183.976562 187.5 183.976562 Z M 187.5 183.976562 " fill-opacity="1" fill-rule="nonzero"/><path fill="#ffffff" d="M 203.125 240.226562 C 203.125 231.597656 196.132812 224.601562 187.5 224.601562 C 178.871094 224.601562 171.875 231.597656 171.875 240.226562 L 131.25 240.226562 C 131.25 271.292969 156.433594 296.476562 187.5 296.476562 C 218.566406 296.476562 243.75 271.292969 243.75 240.226562 Z M 203.125 240.226562 " fill-opacity="1" fill-rule="nonzero"/><path fill="#cfd8dc" d="M 228.125 240.226562 C 228.125 266.460938 211.070312 288.632812 187.46875 296.476562 L 187.5 296.476562 C 218.566406 296.476562 243.75 271.292969 243.75 240.226562 Z M 228.125 240.226562 " fill-opacity="1" fill-rule="nonzero"/><path fill="#37474f" d="M 187.5 187.101562 C 216.792969 187.101562 240.625 210.933594 240.625 240.226562 C 240.625 269.519531 216.792969 293.351562 187.5 293.351562 C 158.207031 293.351562 134.375 269.519531 134.375 240.226562 C 134.375 210.933594 158.207031 187.101562 187.5 187.101562 M 187.5 180.851562 C 154.710938 180.851562 128.125 207.441406 128.125 240.226562 C 128.125 273.015625 154.710938 299.601562 187.5 299.601562 C 220.289062 299.601562 246.875 273.015625 246.875 240.226562 C 246.875 207.441406 220.289062 180.851562 187.5 180.851562 Z M 187.5 180.851562 " fill-opacity="1" fill-rule="nonzero"/><path fill="#37474f" d="M 131.25 237.101562 L 171.875 237.101562 L 171.875 243.351562 L 131.25 243.351562 Z M 131.25 237.101562 " fill-opacity="1" fill-rule="nonzero"/><path fill="#37474f" d="M 203.125 237.101562 L 243.75 237.101562 L 243.75 243.351562 L 203.125 243.351562 Z M 203.125 237.101562 " fill-opacity="1" fill-rule="nonzero"/><path fill="#37474f" d="M 187.5 227.726562 C 194.394531 227.726562 200 233.332031 200 240.226562 C 200 247.121094 194.394531 252.726562 187.5 252.726562 C 180.605469 252.726562 175 247.121094 175 240.226562 C 175 233.332031 180.605469 227.726562 187.5 227.726562 M 187.5 221.476562 C 177.148438 221.476562 168.75 229.871094 168.75 240.226562 C 168.75 250.582031 177.148438 258.976562 187.5 258.976562 C 197.855469 258.976562 206.25 250.582031 206.25 240.226562 C 206.25 229.871094 197.855469 221.476562 187.5 221.476562 Z M 187.5 221.476562 " fill-opacity="1" fill-rule="nonzero"/><path fill="#37474f" d="M 193.75 240.226562 C 193.75 240.636719 193.710938 241.042969 193.628906 241.445312 C 193.550781 241.847656 193.429688 242.242188 193.273438 242.621094 C 193.117188 243 192.925781 243.359375 192.695312 243.699219 C 192.46875 244.042969 192.210938 244.355469 191.917969 244.648438 C 191.628906 244.9375 191.3125 245.195312 190.972656 245.425781 C 190.632812 245.652344 190.269531 245.84375 189.890625 246 C 189.511719 246.160156 189.121094 246.277344 188.71875 246.359375 C 188.316406 246.4375 187.910156 246.476562 187.5 246.476562 C 187.089844 246.476562 186.683594 246.4375 186.28125 246.359375 C 185.878906 246.277344 185.488281 246.160156 185.109375 246 C 184.730469 245.84375 184.367188 245.652344 184.027344 245.425781 C 183.6875 245.195312 183.371094 244.9375 183.082031 244.648438 C 182.789062 244.355469 182.53125 244.042969 182.304688 243.699219 C 182.074219 243.359375 181.882812 243 181.726562 242.621094 C 181.570312 242.242188 181.449219 241.847656 181.371094 241.445312 C 181.289062 241.042969 181.25 240.636719 181.25 240.226562 C 181.25 239.816406 181.289062 239.410156 181.371094 239.007812 C 181.449219 238.605469 181.570312 238.214844 181.726562 237.835938 C 181.882812 237.457031 182.074219 237.097656 182.304688 236.753906 C 182.53125 236.414062 182.789062 236.097656 183.082031 235.808594 C 183.371094 235.519531 183.6875 235.257812 184.027344 235.03125 C 184.367188 234.804688 184.730469 234.609375 185.109375 234.453125 C 185.488281 234.296875 185.878906 234.179688 186.28125 234.097656 C 186.683594 234.019531 187.089844 233.976562 187.5 233.976562 C 187.910156 233.976562 188.316406 234.019531 188.71875 234.097656 C 189.121094 234.179688 189.511719 234.296875 189.890625 234.453125 C 190.269531 234.609375 190.632812 234.804688 190.972656 235.03125 C 191.3125 235.257812 191.628906 235.519531 191.917969 235.808594 C 192.210938 236.097656 192.46875 236.414062 192.695312 236.753906 C 192.925781 237.097656 193.117188 237.457031 193.273438 237.835938 C 193.429688 238.214844 193.550781 238.605469 193.628906 239.007812 C 193.710938 239.410156 193.75 239.816406 193.75 240.226562 Z M 193.75 240.226562 " fill-opacity="1" fill-rule="nonzero"/><g clip-path="url(#id1)"><path fill="#ffd740" d="M 243.660156 132.15625 L 131.339844 132.15625 C 121.042969 132.15625 112.621094 123.730469 112.621094 113.433594 L 112.621094 85.355469 C 112.621094 75.058594 121.042969 66.636719 131.339844 66.636719 L 243.660156 66.636719 C 253.957031 66.636719 262.378906 75.058594 262.378906 85.355469 L 262.378906 113.433594 C 262.378906 123.730469 253.957031 132.15625 243.660156 132.15625 Z M 243.660156 132.15625 " fill-opacity="1" fill-rule="nonzero"/></g><g clip-path="url(#id2)"><path fill="#ff9100" d="M 243.660156 125.914062 L 131.339844 125.914062 C 121.042969 125.914062 112.621094 117.492188 112.621094 107.195312 L 112.621094 85.355469 C 112.621094 75.058594 121.042969 66.636719 131.339844 66.636719 L 243.660156 66.636719 C 253.957031 66.636719 262.378906 75.058594 262.378906 85.355469 L 262.378906 107.195312 C 262.378906 117.492188 253.957031 125.914062 243.660156 125.914062 Z M 243.660156 125.914062 " fill-opacity="1" fill-rule="nonzero"/></g><g clip-path="url(#id3)"><path fill="#ffd740" d="M 187.5 144.636719 L 203.101562 129.035156 L 171.898438 129.035156 Z M 187.5 144.636719 " fill-opacity="1" fill-rule="nonzero"/></g><path fill="#37474f" d="M 159.421875 110.316406 L 146.941406 110.316406 C 145.066406 110.316406 143.820312 109.066406 143.820312 107.195312 L 143.820312 85.355469 C 143.820312 83.484375 145.066406 82.234375 146.941406 82.234375 L 159.421875 82.234375 C 161.292969 82.234375 162.539062 83.484375 162.539062 85.355469 L 162.539062 107.195312 C 162.539062 109.066406 161.292969 110.316406 159.421875 110.316406 Z M 150.058594 104.074219 L 156.300781 104.074219 L 156.300781 88.476562 L 150.058594 88.476562 Z M 249.898438 110.316406 C 248.027344 110.316406 246.78125 109.066406 246.78125 107.195312 L 246.78125 88.476562 L 240.539062 88.476562 L 240.539062 107.195312 C 240.539062 109.066406 239.292969 110.316406 237.421875 110.316406 C 235.546875 110.316406 234.300781 109.066406 234.300781 107.195312 L 234.300781 85.355469 C 234.300781 83.484375 235.546875 82.234375 237.421875 82.234375 L 249.898438 82.234375 C 251.773438 82.234375 253.019531 83.484375 253.019531 85.355469 L 253.019531 107.195312 C 253.019531 109.066406 251.773438 110.316406 249.898438 110.316406 Z M 249.898438 110.316406 " fill-opacity="1" fill-rule="nonzero"/><path fill="#37474f" d="M 234.300781 94.714844 L 253.019531 94.714844 L 253.019531 100.957031 L 234.300781 100.957031 Z M 181.261719 88.476562 L 168.78125 88.476562 C 166.90625 88.476562 165.660156 87.226562 165.660156 85.355469 C 165.660156 83.484375 166.90625 82.234375 168.78125 82.234375 L 181.261719 82.234375 C 183.132812 82.234375 184.378906 83.484375 184.378906 85.355469 C 184.378906 87.226562 183.132812 88.476562 181.261719 88.476562 Z M 181.261719 88.476562 " fill-opacity="1" fill-rule="nonzero"/><path fill="#37474f" d="M 175.019531 110.316406 C 173.148438 110.316406 171.898438 109.066406 171.898438 107.195312 L 171.898438 85.355469 C 171.898438 83.484375 173.148438 82.234375 175.019531 82.234375 C 176.890625 82.234375 178.140625 83.484375 178.140625 85.355469 L 178.140625 107.195312 C 178.140625 109.066406 176.890625 110.316406 175.019531 110.316406 Z M 203.101562 110.316406 L 190.621094 110.316406 C 188.746094 110.316406 187.5 109.066406 187.5 107.195312 L 187.5 85.355469 C 187.5 83.484375 188.746094 82.234375 190.621094 82.234375 L 203.101562 82.234375 C 204.972656 82.234375 206.21875 83.484375 206.21875 85.355469 C 206.21875 87.226562 204.972656 88.476562 203.101562 88.476562 L 193.738281 88.476562 L 193.738281 104.074219 L 203.101562 104.074219 C 204.972656 104.074219 206.21875 105.324219 206.21875 107.195312 C 206.21875 109.066406 204.972656 110.316406 203.101562 110.316406 Z M 224.941406 100.957031 L 212.460938 100.957031 C 210.589844 100.957031 209.339844 99.707031 209.339844 97.835938 C 209.339844 95.964844 210.589844 94.714844 212.460938 94.714844 L 224.941406 94.714844 C 226.8125 94.714844 228.058594 95.964844 228.058594 97.835938 C 228.058594 99.707031 226.8125 100.957031 224.941406 100.957031 Z M 224.941406 100.957031 " fill-opacity="1" fill-rule="nonzero"/><path fill="#37474f" d="M 212.460938 110.316406 C 210.589844 110.316406 209.339844 109.066406 209.339844 107.195312 L 209.339844 85.355469 C 209.339844 83.484375 210.589844 82.234375 212.460938 82.234375 C 214.332031 82.234375 215.578125 83.484375 215.578125 85.355469 L 215.578125 107.195312 C 215.578125 109.066406 214.332031 110.316406 212.460938 110.316406 Z M 224.941406 110.316406 C 223.066406 110.316406 221.820312 109.066406 221.820312 107.195312 L 221.820312 85.355469 C 221.820312 83.484375 223.066406 82.234375 224.941406 82.234375 C 226.8125 82.234375 228.058594 83.484375 228.058594 85.355469 L 228.058594 107.195312 C 228.058594 109.066406 226.8125 110.316406 224.941406 110.316406 Z M 137.578125 110.316406 L 125.101562 110.316406 C 123.226562 110.316406 121.980469 109.066406 121.980469 107.195312 C 121.980469 105.324219 123.226562 104.074219 125.101562 104.074219 L 134.460938 104.074219 L 134.460938 100.957031 C 132.589844 100.957031 131.339844 99.707031 131.339844 97.835938 C 131.339844 95.964844 132.589844 94.714844 134.460938 94.714844 L 137.578125 94.714844 C 139.453125 94.714844 140.699219 95.964844 140.699219 97.835938 L 140.699219 107.195312 C 140.699219 109.066406 139.453125 110.316406 137.578125 110.316406 Z M 137.578125 88.476562 L 125.101562 88.476562 C 123.226562 88.476562 121.980469 87.226562 121.980469 85.355469 C 121.980469 83.484375 123.226562 82.234375 125.101562 82.234375 L 137.578125 82.234375 C 139.453125 82.234375 140.699219 83.484375 140.699219 85.355469 C 140.699219 87.226562 139.453125 88.476562 137.578125 88.476562 Z M 137.578125 88.476562 " fill-opacity="1" fill-rule="nonzero"/><path fill="#37474f" d="M 125.101562 110.316406 C 123.226562 110.316406 121.980469 109.066406 121.980469 107.195312 L 121.980469 85.355469 C 121.980469 83.484375 123.226562 82.234375 125.101562 82.234375 C 126.972656 82.234375 128.21875 83.484375 128.21875 85.355469 L 128.21875 107.195312 C 128.21875 109.066406 126.972656 110.316406 125.101562 110.316406 Z M 125.101562 110.316406 " fill-opacity="1" fill-rule="nonzero"/><g clip-path="url(#id4)"><g clip-path="url(#id5)"><path fill="url(#id6)" d="M 113.128906 166.914062 L 113.128906 315.378906 L 261.992188 315.378906 L 261.992188 166.914062 Z M 113.128906 166.914062 " fill-rule="nonzero"/></g></g></svg>