<svg xmlns="http://www.w3.org/2000/svg" xmlns:xlink="http://www.w3.org/1999/xlink" width="1640" zoomAndPan="magnify" viewBox="0 0 1230 693.000001" height="924" preserveAspectRatio="xMidYMid meet" version="1.0"><defs><clipPath id="id1"><path d="M 199.324219 0 L 1030 0 L 1030 363 L 199.324219 363 Z M 199.324219 0 " clip-rule="nonzero"/></clipPath><clipPath id="id2"><path d="M 199.324219 0 L 1030 0 L 1030 329 L 199.324219 329 Z M 199.324219 0 " clip-rule="nonzero"/></clipPath><clipPath id="id3"><path d="M 528 345 L 702 345 L 702 432.125 L 528 432.125 Z M 528 345 " clip-rule="nonzero"/></clipPath><clipPath id="id4"><path d="M 475 415.199219 L 753 415.199219 L 753 692 L 475 692 Z M 475 415.199219 " clip-rule="nonzero"/></clipPath><clipPath id="id5"><path d="M 712.953125 457.210938 C 687.195312 430.664062 652.644531 415.742188 615.664062 415.191406 C 614.964844 415.183594 614.265625 415.175781 613.574219 415.175781 C 538.367188 415.175781 476.285156 476.398438 475.175781 551.648438 C 474.625 588.648438 488.507812 623.648438 514.269531 650.195312 C 540.027344 676.75 574.578125 691.671875 611.558594 692.21875 C 612.261719 692.230469 612.957031 692.234375 613.652344 692.234375 C 688.851562 692.234375 750.933594 631.011719 752.050781 555.761719 C 752.597656 518.761719 738.714844 483.761719 712.953125 457.210938 Z M 613.574219 424.484375 L 615.53125 424.5 C 650.023438 425.007812 682.25 438.929688 706.277344 463.699219 C 728.949219 487.066406 741.746094 517.453125 742.6875 549.804688 L 668.804688 549.804688 C 666.816406 521.425781 643.367188 498.742188 614.433594 498.3125 L 613.597656 498.304688 C 585.070312 498.304688 561.304688 520.351562 558.550781 548.300781 L 484.617188 548.300781 C 487.488281 479.714844 544.59375 424.484375 613.574219 424.484375 Z M 659.671875 554.386719 C 659.296875 579.425781 638.644531 599.796875 613.625 599.796875 L 612.925781 599.789062 C 600.625 599.609375 589.128906 594.644531 580.554688 585.808594 C 571.984375 576.972656 567.367188 565.332031 567.550781 553.023438 C 567.917969 527.988281 588.574219 507.613281 613.59375 507.613281 L 614.292969 507.621094 C 639.691406 507.996094 660.046875 528.976562 659.671875 554.386719 Z M 613.652344 682.925781 L 611.699219 682.910156 C 577.203125 682.398438 544.976562 668.480469 520.945312 643.710938 C 498.273438 620.34375 485.476562 589.957031 484.535156 557.609375 L 558.410156 557.609375 C 559.308594 570.632812 564.691406 582.8125 573.886719 592.292969 C 584.1875 602.914062 598.003906 608.878906 612.792969 609.097656 L 613.628906 609.105469 C 642.152344 609.105469 665.917969 587.0625 668.675781 559.113281 L 742.605469 559.113281 C 739.726562 627.695312 682.625 682.925781 613.652344 682.925781 Z M 613.652344 682.925781 " clip-rule="nonzero"/></clipPath><linearGradient x1="5.345275" gradientTransform="matrix(3.101303, 0, 0, 3.103025, 458.433046, 397.82397)" y1="94.927726" x2="94.762497" gradientUnits="userSpaceOnUse" y2="5.5105" id="id6"><stop stop-opacity="1" stop-color="rgb(100%, 95.298767%, 23.098755%)" offset="0"/><stop stop-opacity="1" stop-color="rgb(100%, 95.298767%, 23.098755%)" offset="0.015625"/><stop stop-opacity="1" stop-color="rgb(99.961853%, 94.863892%, 22.627258%)" offset="0.0195312"/><stop stop-opacity="1" stop-color="rgb(99.925232%, 94.430542%, 22.155762%)" offset="0.0234375"/><stop stop-opacity="1" stop-color="rgb(99.884033%, 93.954468%, 21.638489%)" offset="0.0273438"/><stop stop-opacity="1" stop-color="rgb(99.84436%, 93.478394%, 21.122742%)" offset="0.03125"/><stop stop-opacity="1" stop-color="rgb(99.803162%, 93.002319%, 20.605469%)" offset="0.0351562"/><stop stop-opacity="1" stop-color="rgb(99.763489%, 92.526245%, 20.089722%)" offset="0.0390625"/><stop stop-opacity="1" stop-color="rgb(99.72229%, 92.050171%, 19.572449%)" offset="0.0429688"/><stop stop-opacity="1" stop-color="rgb(99.682617%, 91.574097%, 19.056702%)" offset="0.046875"/><stop stop-opacity="1" stop-color="rgb(99.641418%, 91.098022%, 18.539429%)" offset="0.0507812"/><stop stop-opacity="1" stop-color="rgb(99.601746%, 90.621948%, 18.023682%)" offset="0.0546875"/><stop stop-opacity="1" stop-color="rgb(99.60022%, 90.245056%, 17.631531%)" offset="0.0585938"/><stop stop-opacity="1" stop-color="rgb(99.598694%, 89.86969%, 17.23938%)" offset="0.0625"/><stop stop-opacity="1" stop-color="rgb(99.598694%, 89.49585%, 16.850281%)" offset="0.0664062"/><stop stop-opacity="1" stop-color="rgb(99.598694%, 89.123535%, 16.461182%)" offset="0.0703125"/><stop stop-opacity="1" stop-color="rgb(99.598694%, 88.749695%, 16.072083%)" offset="0.0742188"/><stop stop-opacity="1" stop-color="rgb(99.598694%, 88.375854%, 15.682983%)" offset="0.078125"/><stop stop-opacity="1" stop-color="rgb(99.598694%, 88.002014%, 15.292358%)" offset="0.0820312"/><stop stop-opacity="1" stop-color="rgb(99.598694%, 87.6297%, 14.903259%)" offset="0.0859375"/><stop stop-opacity="1" stop-color="rgb(99.598694%, 87.255859%, 14.51416%)" offset="0.0898438"/><stop stop-opacity="1" stop-color="rgb(99.598694%, 86.882019%, 14.125061%)" offset="0.09375"/><stop stop-opacity="1" stop-color="rgb(99.598694%, 86.508179%, 13.735962%)" offset="0.0976562"/><stop stop-opacity="1" stop-color="rgb(99.598694%, 86.135864%, 13.346863%)" offset="0.101562"/><stop stop-opacity="1" stop-color="rgb(99.598694%, 85.762024%, 12.957764%)" offset="0.105469"/><stop stop-opacity="1" stop-color="rgb(99.598694%, 85.388184%, 12.568665%)" offset="0.109375"/><stop stop-opacity="1" stop-color="rgb(99.598694%, 85.014343%, 12.179565%)" offset="0.113281"/><stop stop-opacity="1" stop-color="rgb(99.598694%, 84.642029%, 11.790466%)" offset="0.117188"/><stop stop-opacity="1" stop-color="rgb(99.598694%, 84.268188%, 11.399841%)" offset="0.121094"/><stop stop-opacity="1" stop-color="rgb(99.598694%, 83.894348%, 11.010742%)" offset="0.125"/><stop stop-opacity="1" stop-color="rgb(99.589539%, 83.592224%, 10.700989%)" offset="0.128906"/><stop stop-opacity="1" stop-color="rgb(99.580383%, 83.291626%, 10.391235%)" offset="0.132812"/><stop stop-opacity="1" stop-color="rgb(99.559021%, 83.070374%, 10.169983%)" offset="0.136719"/><stop stop-opacity="1" stop-color="rgb(99.539185%, 82.850647%, 9.950256%)" offset="0.140625"/><stop stop-opacity="1" stop-color="rgb(99.517822%, 82.629395%, 9.729004%)" offset="0.144531"/><stop stop-opacity="1" stop-color="rgb(99.497986%, 82.409668%, 9.509277%)" offset="0.148438"/><stop stop-opacity="1" stop-color="rgb(99.476624%, 82.188416%, 9.288025%)" offset="0.152344"/><stop stop-opacity="1" stop-color="rgb(99.456787%, 81.968689%, 9.068298%)" offset="0.15625"/><stop stop-opacity="1" stop-color="rgb(99.435425%, 81.747437%, 8.847046%)" offset="0.160156"/><stop stop-opacity="1" stop-color="rgb(99.415588%, 81.52771%, 8.627319%)" offset="0.164062"/><stop stop-opacity="1" stop-color="rgb(99.394226%, 81.306458%, 8.406067%)" offset="0.167969"/><stop stop-opacity="1" stop-color="rgb(99.37439%, 81.086731%, 8.18634%)" offset="0.171875"/><stop stop-opacity="1" stop-color="rgb(99.353027%, 80.865479%, 7.965088%)" offset="0.175781"/><stop stop-opacity="1" stop-color="rgb(99.333191%, 80.645752%, 7.745361%)" offset="0.179688"/><stop stop-opacity="1" stop-color="rgb(99.313354%, 80.4245%, 7.524109%)" offset="0.183594"/><stop stop-opacity="1" stop-color="rgb(99.293518%, 80.204773%, 7.304382%)" offset="0.1875"/><stop stop-opacity="1" stop-color="rgb(99.272156%, 79.983521%, 7.08313%)" offset="0.191406"/><stop stop-opacity="1" stop-color="rgb(99.252319%, 79.763794%, 6.863403%)" offset="0.195312"/><stop stop-opacity="1" stop-color="rgb(99.230957%, 79.542542%, 6.642151%)" offset="0.199219"/><stop stop-opacity="1" stop-color="rgb(99.211121%, 79.322815%, 6.422424%)" offset="0.203125"/><stop stop-opacity="1" stop-color="rgb(99.205017%, 79.162598%, 6.228638%)" offset="0.21875"/><stop stop-opacity="1" stop-color="rgb(99.198914%, 78.887939%, 5.883789%)" offset="0.234375"/><stop stop-opacity="1" stop-color="rgb(99.198914%, 78.659058%, 5.580139%)" offset="0.25"/><stop stop-opacity="1" stop-color="rgb(99.198914%, 78.430176%, 5.274963%)" offset="0.265625"/><stop stop-opacity="1" stop-color="rgb(99.198914%, 78.201294%, 4.969788%)" offset="0.28125"/><stop stop-opacity="1" stop-color="rgb(99.189758%, 77.992249%, 4.804993%)" offset="0.289062"/><stop stop-opacity="1" stop-color="rgb(99.139404%, 77.671814%, 5.003357%)" offset="0.292969"/><stop stop-opacity="1" stop-color="rgb(99.099731%, 77.44751%, 5.212402%)" offset="0.296875"/><stop stop-opacity="1" stop-color="rgb(99.058533%, 77.22168%, 5.421448%)" offset="0.300781"/><stop stop-opacity="1" stop-color="rgb(99.017334%, 76.997375%, 5.632019%)" offset="0.304688"/><stop stop-opacity="1" stop-color="rgb(98.976135%, 76.771545%, 5.841064%)" offset="0.308594"/><stop stop-opacity="1" stop-color="rgb(98.936462%, 76.547241%, 6.05011%)" offset="0.3125"/><stop stop-opacity="1" stop-color="rgb(98.895264%, 76.321411%, 6.259155%)" offset="0.316406"/><stop stop-opacity="1" stop-color="rgb(98.854065%, 76.097107%, 6.468201%)" offset="0.320312"/><stop stop-opacity="1" stop-color="rgb(98.812866%, 75.871277%, 6.677246%)" offset="0.324219"/><stop stop-opacity="1" stop-color="rgb(98.773193%, 75.646973%, 6.887817%)" offset="0.328125"/><stop stop-opacity="1" stop-color="rgb(98.731995%, 75.421143%, 7.096863%)" offset="0.332031"/><stop stop-opacity="1" stop-color="rgb(98.690796%, 75.196838%, 7.305908%)" offset="0.335938"/><stop stop-opacity="1" stop-color="rgb(98.649597%, 74.971008%, 7.514954%)" offset="0.339844"/><stop stop-opacity="1" stop-color="rgb(98.609924%, 74.746704%, 7.725525%)" offset="0.34375"/><stop stop-opacity="1" stop-color="rgb(98.568726%, 74.520874%, 7.93457%)" offset="0.347656"/><stop stop-opacity="1" stop-color="rgb(98.527527%, 74.29657%, 8.143616%)" offset="0.351562"/><stop stop-opacity="1" stop-color="rgb(98.486328%, 74.07074%, 8.352661%)" offset="0.355469"/><stop stop-opacity="1" stop-color="rgb(98.446655%, 73.846436%, 8.561707%)" offset="0.359375"/><stop stop-opacity="1" stop-color="rgb(98.405457%, 73.620605%, 8.770752%)" offset="0.363281"/><stop stop-opacity="1" stop-color="rgb(98.364258%, 73.396301%, 8.981323%)" offset="0.367188"/><stop stop-opacity="1" stop-color="rgb(98.323059%, 73.170471%, 9.190369%)" offset="0.371094"/><stop stop-opacity="1" stop-color="rgb(98.283386%, 72.946167%, 9.399414%)" offset="0.375"/><stop stop-opacity="1" stop-color="rgb(98.242188%, 72.720337%, 9.608459%)" offset="0.378906"/><stop stop-opacity="1" stop-color="rgb(98.200989%, 72.496033%, 9.817505%)" offset="0.382812"/><stop stop-opacity="1" stop-color="rgb(98.15979%, 72.270203%, 10.02655%)" offset="0.386719"/><stop stop-opacity="1" stop-color="rgb(98.120117%, 72.045898%, 10.237122%)" offset="0.390625"/><stop stop-opacity="1" stop-color="rgb(98.078918%, 71.820068%, 10.446167%)" offset="0.394531"/><stop stop-opacity="1" stop-color="rgb(98.03772%, 71.595764%, 10.655212%)" offset="0.398438"/><stop stop-opacity="1" stop-color="rgb(97.996521%, 71.369934%, 10.864258%)" offset="0.402344"/><stop stop-opacity="1" stop-color="rgb(97.956848%, 71.14563%, 11.074829%)" offset="0.40625"/><stop stop-opacity="1" stop-color="rgb(97.915649%, 70.9198%, 11.283875%)" offset="0.410156"/><stop stop-opacity="1" stop-color="rgb(97.874451%, 70.695496%, 11.49292%)" offset="0.414062"/><stop stop-opacity="1" stop-color="rgb(97.833252%, 70.469666%, 11.701965%)" offset="0.417969"/><stop stop-opacity="1" stop-color="rgb(97.793579%, 70.245361%, 11.911011%)" offset="0.421875"/><stop stop-opacity="1" stop-color="rgb(97.75238%, 70.019531%, 12.120056%)" offset="0.425781"/><stop stop-opacity="1" stop-color="rgb(97.711182%, 69.795227%, 12.330627%)" offset="0.429688"/><stop stop-opacity="1" stop-color="rgb(97.669983%, 69.570923%, 12.539673%)" offset="0.433594"/><stop stop-opacity="1" stop-color="rgb(97.63031%, 69.346619%, 12.748718%)" offset="0.4375"/><stop stop-opacity="1" stop-color="rgb(97.589111%, 69.120789%, 12.957764%)" offset="0.441406"/><stop stop-opacity="1" stop-color="rgb(97.547913%, 68.896484%, 13.166809%)" offset="0.445312"/><stop stop-opacity="1" stop-color="rgb(97.506714%, 68.670654%, 13.375854%)" offset="0.449219"/><stop stop-opacity="1" stop-color="rgb(97.465515%, 68.44635%, 13.586426%)" offset="0.453125"/><stop stop-opacity="1" stop-color="rgb(97.424316%, 68.22052%, 13.795471%)" offset="0.457031"/><stop stop-opacity="1" stop-color="rgb(97.384644%, 67.996216%, 14.004517%)" offset="0.460938"/><stop stop-opacity="1" stop-color="rgb(97.343445%, 67.770386%, 14.213562%)" offset="0.464844"/><stop stop-opacity="1" stop-color="rgb(97.302246%, 67.546082%, 14.424133%)" offset="0.46875"/><stop stop-opacity="1" stop-color="rgb(97.261047%, 67.320251%, 14.633179%)" offset="0.472656"/><stop stop-opacity="1" stop-color="rgb(97.221375%, 67.095947%, 14.842224%)" offset="0.476562"/><stop stop-opacity="1" stop-color="rgb(97.180176%, 66.870117%, 15.05127%)" offset="0.480469"/><stop stop-opacity="1" stop-color="rgb(97.138977%, 66.645813%, 15.260315%)" offset="0.484375"/><stop stop-opacity="1" stop-color="rgb(97.097778%, 66.419983%, 15.46936%)" offset="0.488281"/><stop stop-opacity="1" stop-color="rgb(97.058105%, 66.195679%, 15.679932%)" offset="0.492188"/><stop stop-opacity="1" stop-color="rgb(97.016907%, 65.969849%, 15.888977%)" offset="0.496094"/><stop stop-opacity="1" stop-color="rgb(96.975708%, 65.745544%, 16.098022%)" offset="0.5"/><stop stop-opacity="1" stop-color="rgb(96.934509%, 65.519714%, 16.307068%)" offset="0.503906"/><stop stop-opacity="1" stop-color="rgb(96.894836%, 65.29541%, 16.516113%)" offset="0.507812"/><stop stop-opacity="1" stop-color="rgb(96.853638%, 65.06958%, 16.725159%)" offset="0.511719"/><stop stop-opacity="1" stop-color="rgb(96.812439%, 64.845276%, 16.93573%)" offset="0.515625"/><stop stop-opacity="1" stop-color="rgb(96.77124%, 64.619446%, 17.144775%)" offset="0.519531"/><stop stop-opacity="1" stop-color="rgb(96.731567%, 64.395142%, 17.353821%)" offset="0.523438"/><stop stop-opacity="1" stop-color="rgb(96.690369%, 64.169312%, 17.562866%)" offset="0.527344"/><stop stop-opacity="1" stop-color="rgb(96.64917%, 63.945007%, 17.773438%)" offset="0.53125"/><stop stop-opacity="1" stop-color="rgb(96.607971%, 63.719177%, 17.982483%)" offset="0.535156"/><stop stop-opacity="1" stop-color="rgb(96.568298%, 63.494873%, 18.191528%)" offset="0.539062"/><stop stop-opacity="1" stop-color="rgb(96.5271%, 63.269043%, 18.400574%)" offset="0.542969"/><stop stop-opacity="1" stop-color="rgb(96.485901%, 63.044739%, 18.609619%)" offset="0.546875"/><stop stop-opacity="1" stop-color="rgb(96.444702%, 62.818909%, 18.818665%)" offset="0.550781"/><stop stop-opacity="1" stop-color="rgb(96.405029%, 62.594604%, 19.029236%)" offset="0.554688"/><stop stop-opacity="1" stop-color="rgb(96.363831%, 62.368774%, 19.238281%)" offset="0.558594"/><stop stop-opacity="1" stop-color="rgb(96.322632%, 62.14447%, 19.447327%)" offset="0.5625"/><stop stop-opacity="1" stop-color="rgb(96.281433%, 61.91864%, 19.656372%)" offset="0.566406"/><stop stop-opacity="1" stop-color="rgb(96.24176%, 61.694336%, 19.866943%)" offset="0.570312"/><stop stop-opacity="1" stop-color="rgb(96.200562%, 61.468506%, 20.075989%)" offset="0.574219"/><stop stop-opacity="1" stop-color="rgb(96.159363%, 61.244202%, 20.285034%)" offset="0.578125"/><stop stop-opacity="1" stop-color="rgb(96.118164%, 61.018372%, 20.49408%)" offset="0.582031"/><stop stop-opacity="1" stop-color="rgb(96.078491%, 60.794067%, 20.703125%)" offset="0.585938"/><stop stop-opacity="1" stop-color="rgb(96.037292%, 60.568237%, 20.91217%)" offset="0.589844"/><stop stop-opacity="1" stop-color="rgb(95.996094%, 60.343933%, 21.122742%)" offset="0.59375"/><stop stop-opacity="1" stop-color="rgb(95.954895%, 60.118103%, 21.331787%)" offset="0.597656"/><stop stop-opacity="1" stop-color="rgb(95.915222%, 59.893799%, 21.540833%)" offset="0.601562"/><stop stop-opacity="1" stop-color="rgb(95.874023%, 59.669495%, 21.749878%)" offset="0.605469"/><stop stop-opacity="1" stop-color="rgb(95.832825%, 59.44519%, 21.958923%)" offset="0.609375"/><stop stop-opacity="1" stop-color="rgb(95.791626%, 59.21936%, 22.167969%)" offset="0.613281"/><stop stop-opacity="1" stop-color="rgb(95.751953%, 58.995056%, 22.37854%)" offset="0.617188"/><stop stop-opacity="1" stop-color="rgb(95.710754%, 58.769226%, 22.587585%)" offset="0.621094"/><stop stop-opacity="1" stop-color="rgb(95.669556%, 58.544922%, 22.796631%)" offset="0.625"/><stop stop-opacity="1" stop-color="rgb(95.628357%, 58.319092%, 23.005676%)" offset="0.628906"/><stop stop-opacity="1" stop-color="rgb(95.588684%, 58.094788%, 23.216248%)" offset="0.632812"/><stop stop-opacity="1" stop-color="rgb(95.547485%, 57.868958%, 23.425293%)" offset="0.636719"/><stop stop-opacity="1" stop-color="rgb(95.506287%, 57.644653%, 23.634338%)" offset="0.640625"/><stop stop-opacity="1" stop-color="rgb(95.465088%, 57.418823%, 23.843384%)" offset="0.644531"/><stop stop-opacity="1" stop-color="rgb(95.425415%, 57.194519%, 24.052429%)" offset="0.648438"/><stop stop-opacity="1" stop-color="rgb(95.384216%, 56.968689%, 24.261475%)" offset="0.652344"/><stop stop-opacity="1" stop-color="rgb(95.343018%, 56.744385%, 24.472046%)" offset="0.65625"/><stop stop-opacity="1" stop-color="rgb(95.300293%, 56.489563%, 24.575806%)" offset="0.660156"/><stop stop-opacity="1" stop-color="rgb(95.259094%, 56.236267%, 24.679565%)" offset="0.664062"/><stop stop-opacity="1" stop-color="rgb(95.214844%, 55.94635%, 24.656677%)" offset="0.667969"/><stop stop-opacity="1" stop-color="rgb(95.170593%, 55.657959%, 24.635315%)" offset="0.671875"/><stop stop-opacity="1" stop-color="rgb(95.126343%, 55.368042%, 24.612427%)" offset="0.675781"/><stop stop-opacity="1" stop-color="rgb(95.082092%, 55.079651%, 24.591064%)" offset="0.679688"/><stop stop-opacity="1" stop-color="rgb(95.037842%, 54.789734%, 24.568176%)" offset="0.683594"/><stop stop-opacity="1" stop-color="rgb(94.993591%, 54.501343%, 24.546814%)" offset="0.6875"/><stop stop-opacity="1" stop-color="rgb(94.949341%, 54.211426%, 24.523926%)" offset="0.691406"/><stop stop-opacity="1" stop-color="rgb(94.90509%, 53.923035%, 24.502563%)" offset="0.695312"/><stop stop-opacity="1" stop-color="rgb(94.86084%, 53.633118%, 24.479675%)" offset="0.699219"/><stop stop-opacity="1" stop-color="rgb(94.816589%, 53.344727%, 24.458313%)" offset="0.703125"/><stop stop-opacity="1" stop-color="rgb(94.772339%, 53.05481%, 24.435425%)" offset="0.707031"/><stop stop-opacity="1" stop-color="rgb(94.728088%, 52.766418%, 24.414062%)" offset="0.710938"/><stop stop-opacity="1" stop-color="rgb(94.683838%, 52.476501%, 24.391174%)" offset="0.714844"/><stop stop-opacity="1" stop-color="rgb(94.639587%, 52.18811%, 24.369812%)" offset="0.71875"/><stop stop-opacity="1" stop-color="rgb(94.595337%, 51.898193%, 24.346924%)" offset="0.722656"/><stop stop-opacity="1" stop-color="rgb(94.552612%, 51.609802%, 24.325562%)" offset="0.726562"/><stop stop-opacity="1" stop-color="rgb(94.508362%, 51.321411%, 24.302673%)" offset="0.730469"/><stop stop-opacity="1" stop-color="rgb(94.464111%, 51.03302%, 24.281311%)" offset="0.734375"/><stop stop-opacity="1" stop-color="rgb(94.419861%, 50.743103%, 24.258423%)" offset="0.738281"/><stop stop-opacity="1" stop-color="rgb(94.37561%, 50.454712%, 24.237061%)" offset="0.742188"/><stop stop-opacity="1" stop-color="rgb(94.33136%, 50.164795%, 24.214172%)" offset="0.746094"/><stop stop-opacity="1" stop-color="rgb(94.287109%, 49.876404%, 24.19281%)" offset="0.75"/><stop stop-opacity="1" stop-color="rgb(94.242859%, 49.586487%, 24.169922%)" offset="0.753906"/><stop stop-opacity="1" stop-color="rgb(94.198608%, 49.298096%, 24.14856%)" offset="0.757812"/><stop stop-opacity="1" stop-color="rgb(94.154358%, 49.008179%, 24.125671%)" offset="0.761719"/><stop stop-opacity="1" stop-color="rgb(94.110107%, 48.719788%, 24.104309%)" offset="0.765625"/><stop stop-opacity="1" stop-color="rgb(94.065857%, 48.429871%, 24.081421%)" offset="0.769531"/><stop stop-opacity="1" stop-color="rgb(94.021606%, 48.141479%, 24.060059%)" offset="0.773438"/><stop stop-opacity="1" stop-color="rgb(93.977356%, 47.851562%, 24.03717%)" offset="0.777344"/><stop stop-opacity="1" stop-color="rgb(93.933105%, 47.563171%, 24.015808%)" offset="0.78125"/><stop stop-opacity="1" stop-color="rgb(93.888855%, 47.273254%, 23.99292%)" offset="0.785156"/><stop stop-opacity="1" stop-color="rgb(93.844604%, 46.984863%, 23.971558%)" offset="0.789062"/><stop stop-opacity="1" stop-color="rgb(93.800354%, 46.696472%, 23.948669%)" offset="0.792969"/><stop stop-opacity="1" stop-color="rgb(93.756104%, 46.408081%, 23.927307%)" offset="0.796875"/><stop stop-opacity="1" stop-color="rgb(93.711853%, 46.118164%, 23.904419%)" offset="0.800781"/><stop stop-opacity="1" stop-color="rgb(93.667603%, 45.829773%, 23.883057%)" offset="0.804688"/><stop stop-opacity="1" stop-color="rgb(93.623352%, 45.539856%, 23.860168%)" offset="0.808594"/><stop stop-opacity="1" stop-color="rgb(93.579102%, 45.251465%, 23.838806%)" offset="0.8125"/><stop stop-opacity="1" stop-color="rgb(93.534851%, 44.961548%, 23.817444%)" offset="0.816406"/><stop stop-opacity="1" stop-color="rgb(93.492126%, 44.673157%, 23.796082%)" offset="0.820312"/><stop stop-opacity="1" stop-color="rgb(93.447876%, 44.38324%, 23.773193%)" offset="0.824219"/><stop stop-opacity="1" stop-color="rgb(93.403625%, 44.094849%, 23.751831%)" offset="0.828125"/><stop stop-opacity="1" stop-color="rgb(93.359375%, 43.804932%, 23.728943%)" offset="0.832031"/><stop stop-opacity="1" stop-color="rgb(93.315125%, 43.516541%, 23.707581%)" offset="0.835938"/><stop stop-opacity="1" stop-color="rgb(93.270874%, 43.226624%, 23.684692%)" offset="0.839844"/><stop stop-opacity="1" stop-color="rgb(93.226624%, 42.938232%, 23.66333%)" offset="0.84375"/><stop stop-opacity="1" stop-color="rgb(93.182373%, 42.648315%, 23.640442%)" offset="0.847656"/><stop stop-opacity="1" stop-color="rgb(93.138123%, 42.359924%, 23.61908%)" offset="0.851562"/><stop stop-opacity="1" stop-color="rgb(93.093872%, 42.070007%, 23.596191%)" offset="0.855469"/><stop stop-opacity="1" stop-color="rgb(93.049622%, 41.781616%, 23.574829%)" offset="0.859375"/><stop stop-opacity="1" stop-color="rgb(93.005371%, 41.493225%, 23.551941%)" offset="0.863281"/><stop stop-opacity="1" stop-color="rgb(92.961121%, 41.204834%, 23.530579%)" offset="0.867188"/><stop stop-opacity="1" stop-color="rgb(92.913818%, 40.823364%, 23.506165%)" offset="0.871094"/><stop stop-opacity="1" stop-color="rgb(92.866516%, 40.441895%, 23.48175%)" offset="0.875"/><stop stop-opacity="1" stop-color="rgb(92.811584%, 39.845276%, 23.452759%)" offset="0.878906"/><stop stop-opacity="1" stop-color="rgb(92.758179%, 39.248657%, 23.423767%)" offset="0.882812"/><stop stop-opacity="1" stop-color="rgb(92.703247%, 38.652039%, 23.394775%)" offset="0.886719"/><stop stop-opacity="1" stop-color="rgb(92.649841%, 38.05542%, 23.365784%)" offset="0.890625"/><stop stop-opacity="1" stop-color="rgb(92.59491%, 37.457275%, 23.336792%)" offset="0.894531"/><stop stop-opacity="1" stop-color="rgb(92.541504%, 36.860657%, 23.3078%)" offset="0.898438"/><stop stop-opacity="1" stop-color="rgb(92.486572%, 36.264038%, 23.278809%)" offset="0.902344"/><stop stop-opacity="1" stop-color="rgb(92.433167%, 35.667419%, 23.249817%)" offset="0.90625"/><stop stop-opacity="1" stop-color="rgb(92.378235%, 35.070801%, 23.220825%)" offset="0.910156"/><stop stop-opacity="1" stop-color="rgb(92.324829%, 34.474182%, 23.191833%)" offset="0.914062"/><stop stop-opacity="1" stop-color="rgb(92.269897%, 33.877563%, 23.162842%)" offset="0.917969"/><stop stop-opacity="1" stop-color="rgb(92.216492%, 33.280945%, 23.135376%)" offset="0.921875"/><stop stop-opacity="1" stop-color="rgb(92.16156%, 32.684326%, 23.106384%)" offset="0.925781"/><stop stop-opacity="1" stop-color="rgb(92.106628%, 32.087708%, 23.077393%)" offset="0.929688"/><stop stop-opacity="1" stop-color="rgb(92.051697%, 31.491089%, 23.048401%)" offset="0.933594"/><stop stop-opacity="1" stop-color="rgb(91.998291%, 30.89447%, 23.019409%)" offset="0.9375"/><stop stop-opacity="1" stop-color="rgb(91.943359%, 30.297852%, 22.990417%)" offset="0.941406"/><stop stop-opacity="1" stop-color="rgb(91.889954%, 29.701233%, 22.961426%)" offset="0.945312"/><stop stop-opacity="1" stop-color="rgb(91.835022%, 29.103088%, 22.932434%)" offset="0.949219"/><stop stop-opacity="1" stop-color="rgb(91.781616%, 28.50647%, 22.903442%)" offset="0.953125"/><stop stop-opacity="1" stop-color="rgb(91.726685%, 27.909851%, 22.874451%)" offset="0.957031"/><stop stop-opacity="1" stop-color="rgb(91.673279%, 27.313232%, 22.845459%)" offset="0.960938"/><stop stop-opacity="1" stop-color="rgb(91.618347%, 26.716614%, 22.816467%)" offset="0.964844"/><stop stop-opacity="1" stop-color="rgb(91.564941%, 26.119995%, 22.787476%)" offset="0.96875"/><stop stop-opacity="1" stop-color="rgb(91.51001%, 25.523376%, 22.758484%)" offset="0.972656"/><stop stop-opacity="1" stop-color="rgb(91.456604%, 24.926758%, 22.729492%)" offset="0.976562"/><stop stop-opacity="1" stop-color="rgb(91.427612%, 24.612427%, 22.714233%)" offset="0.980469"/><stop stop-opacity="1" stop-color="rgb(91.398621%, 24.299622%, 22.698975%)" offset="0.984375"/><stop stop-opacity="1" stop-color="rgb(91.398621%, 24.299622%, 22.698975%)" offset="1"/></linearGradient></defs><g clip-path="url(#id1)"><path fill="#ffd740" d="M 926.210938 362.984375 L 303.734375 362.984375 C 246.671875 362.984375 199.984375 316.316406 199.984375 259.277344 L 199.984375 103.710938 C 199.984375 46.667969 246.671875 0 303.734375 0 L 926.210938 0 C 983.273438 0 1029.960938 46.667969 1029.960938 103.710938 L 1029.960938 259.277344 C 1029.960938 316.316406 983.273438 362.984375 926.210938 362.984375 Z M 926.210938 362.984375 " fill-opacity="1" fill-rule="nonzero"/></g><g clip-path="url(#id2)"><path fill="#ff9100" d="M 926.210938 328.417969 L 303.734375 328.417969 C 246.671875 328.417969 199.984375 281.746094 199.984375 224.707031 L 199.984375 103.710938 C 199.984375 46.667969 246.671875 0 303.734375 0 L 926.210938 0 C 983.273438 0 1029.960938 46.667969 1029.960938 103.710938 L 1029.960938 224.707031 C 1029.960938 281.746094 983.273438 328.417969 926.210938 328.417969 Z M 926.210938 328.417969 " fill-opacity="1" fill-rule="nonzero"/></g><g clip-path="url(#id3)"><path fill="#ffd740" d="M 614.972656 432.125 L 701.429688 345.699219 L 528.515625 345.699219 Z M 614.972656 432.125 " fill-opacity="1" fill-rule="nonzero"/></g><path fill="#37474f" d="M 459.351562 241.992188 L 390.1875 241.992188 C 379.8125 241.992188 372.898438 235.078125 372.898438 224.707031 L 372.898438 103.710938 C 372.898438 93.339844 379.8125 86.425781 390.1875 86.425781 L 459.351562 86.425781 C 469.726562 86.425781 476.644531 93.339844 476.644531 103.710938 L 476.644531 224.707031 C 476.644531 235.078125 469.726562 241.992188 459.351562 241.992188 Z M 407.480469 207.421875 L 442.0625 207.421875 L 442.0625 120.996094 L 407.480469 120.996094 Z M 960.792969 241.992188 C 950.421875 241.992188 943.503906 235.078125 943.503906 224.707031 L 943.503906 120.996094 L 908.921875 120.996094 L 908.921875 224.707031 C 908.921875 235.078125 902.003906 241.992188 891.628906 241.992188 C 881.253906 241.992188 874.339844 235.078125 874.339844 224.707031 L 874.339844 103.710938 C 874.339844 93.339844 881.253906 86.425781 891.628906 86.425781 L 960.792969 86.425781 C 971.167969 86.425781 978.085938 93.339844 978.085938 103.710938 L 978.085938 224.707031 C 978.085938 235.078125 971.167969 241.992188 960.792969 241.992188 Z M 960.792969 241.992188 " fill-opacity="1" fill-rule="nonzero"/><path fill="#37474f" d="M 874.339844 155.566406 L 978.085938 155.566406 L 978.085938 190.136719 L 874.339844 190.136719 Z M 580.390625 120.996094 L 511.226562 120.996094 C 500.851562 120.996094 493.933594 114.082031 493.933594 103.710938 C 493.933594 93.339844 500.851562 86.425781 511.226562 86.425781 L 580.390625 86.425781 C 590.765625 86.425781 597.679688 93.339844 597.679688 103.710938 C 597.679688 114.082031 590.765625 120.996094 580.390625 120.996094 Z M 580.390625 120.996094 " fill-opacity="1" fill-rule="nonzero"/><path fill="#37474f" d="M 545.808594 241.992188 C 535.433594 241.992188 528.515625 235.078125 528.515625 224.707031 L 528.515625 103.710938 C 528.515625 93.339844 535.433594 86.425781 545.808594 86.425781 C 556.183594 86.425781 563.097656 93.339844 563.097656 103.710938 L 563.097656 224.707031 C 563.097656 235.078125 556.183594 241.992188 545.808594 241.992188 Z M 701.429688 241.992188 L 632.265625 241.992188 C 621.890625 241.992188 614.972656 235.078125 614.972656 224.707031 L 614.972656 103.710938 C 614.972656 93.339844 621.890625 86.425781 632.265625 86.425781 L 701.429688 86.425781 C 711.804688 86.425781 718.71875 93.339844 718.71875 103.710938 C 718.71875 114.082031 711.804688 120.996094 701.429688 120.996094 L 649.554688 120.996094 L 649.554688 207.421875 L 701.429688 207.421875 C 711.804688 207.421875 718.71875 214.335938 718.71875 224.707031 C 718.71875 235.078125 711.804688 241.992188 701.429688 241.992188 Z M 822.464844 190.136719 L 753.300781 190.136719 C 742.925781 190.136719 736.011719 183.222656 736.011719 172.851562 C 736.011719 162.480469 742.925781 155.566406 753.300781 155.566406 L 822.464844 155.566406 C 832.839844 155.566406 839.757812 162.480469 839.757812 172.851562 C 839.757812 183.222656 832.839844 190.136719 822.464844 190.136719 Z M 822.464844 190.136719 " fill-opacity="1" fill-rule="nonzero"/><path fill="#37474f" d="M 753.300781 241.992188 C 742.925781 241.992188 736.011719 235.078125 736.011719 224.707031 L 736.011719 103.710938 C 736.011719 93.339844 742.925781 86.425781 753.300781 86.425781 C 763.675781 86.425781 770.59375 93.339844 770.59375 103.710938 L 770.59375 224.707031 C 770.59375 235.078125 763.675781 241.992188 753.300781 241.992188 Z M 822.464844 241.992188 C 812.089844 241.992188 805.175781 235.078125 805.175781 224.707031 L 805.175781 103.710938 C 805.175781 93.339844 812.089844 86.425781 822.464844 86.425781 C 832.839844 86.425781 839.757812 93.339844 839.757812 103.710938 L 839.757812 224.707031 C 839.757812 235.078125 832.839844 241.992188 822.464844 241.992188 Z M 338.316406 241.992188 L 269.152344 241.992188 C 258.777344 241.992188 251.859375 235.078125 251.859375 224.707031 C 251.859375 214.335938 258.777344 207.421875 269.152344 207.421875 L 321.023438 207.421875 L 321.023438 190.136719 C 310.648438 190.136719 303.734375 183.222656 303.734375 172.851562 C 303.734375 162.480469 310.648438 155.566406 321.023438 155.566406 L 338.316406 155.566406 C 348.691406 155.566406 355.605469 162.480469 355.605469 172.851562 L 355.605469 224.707031 C 355.605469 235.078125 348.691406 241.992188 338.316406 241.992188 Z M 338.316406 120.996094 L 269.152344 120.996094 C 258.777344 120.996094 251.859375 114.082031 251.859375 103.710938 C 251.859375 93.339844 258.777344 86.425781 269.152344 86.425781 L 338.316406 86.425781 C 348.691406 86.425781 355.605469 93.339844 355.605469 103.710938 C 355.605469 114.082031 348.691406 120.996094 338.316406 120.996094 Z M 338.316406 120.996094 " fill-opacity="1" fill-rule="nonzero"/><path fill="#37474f" d="M 269.152344 241.992188 C 258.777344 241.992188 251.859375 235.078125 251.859375 224.707031 L 251.859375 103.710938 C 251.859375 93.339844 258.777344 86.425781 269.152344 86.425781 C 279.523438 86.425781 286.441406 93.339844 286.441406 103.710938 L 286.441406 224.707031 C 286.441406 235.078125 279.523438 241.992188 269.152344 241.992188 Z M 269.152344 241.992188 " fill-opacity="1" fill-rule="nonzero"/><path fill="#ff3d00" d="M 719.0625 553.75 C 719.0625 555.453125 719.019531 557.152344 718.9375 558.851562 C 718.855469 560.546875 718.730469 562.242188 718.5625 563.9375 C 718.394531 565.628906 718.1875 567.316406 717.9375 569 C 717.6875 570.679688 717.398438 572.355469 717.066406 574.023438 C 716.734375 575.691406 716.363281 577.351562 715.949219 579 C 715.535156 580.648438 715.082031 582.289062 714.585938 583.914062 C 714.09375 585.542969 713.5625 587.15625 712.988281 588.757812 C 712.414062 590.359375 711.804688 591.945312 711.152344 593.515625 C 710.5 595.085938 709.8125 596.640625 709.085938 598.179688 C 708.359375 599.714844 707.59375 601.234375 706.792969 602.734375 C 705.992188 604.234375 705.152344 605.714844 704.277344 607.171875 C 703.402344 608.632812 702.496094 610.066406 701.550781 611.480469 C 700.605469 612.894531 699.625 614.285156 698.613281 615.652344 C 697.601562 617.015625 696.554688 618.359375 695.476562 619.671875 C 694.394531 620.988281 693.285156 622.273438 692.144531 623.535156 C 691 624.792969 689.828125 626.027344 688.628906 627.226562 C 687.425781 628.429688 686.191406 629.601562 684.933594 630.746094 C 683.671875 631.886719 682.386719 632.996094 681.070312 634.078125 C 679.757812 635.15625 678.417969 636.203125 677.050781 637.214844 C 675.683594 638.226562 674.292969 639.207031 672.878906 640.152344 C 671.464844 641.097656 670.03125 642.003906 668.570312 642.878906 C 667.113281 643.753906 665.632812 644.59375 664.132812 645.394531 C 662.632812 646.195312 661.117188 646.960938 659.578125 647.6875 C 658.039062 648.414062 656.488281 649.101562 654.914062 649.753906 C 653.34375 650.40625 651.757812 651.015625 650.15625 651.589844 C 648.554688 652.164062 646.941406 652.695312 645.3125 653.1875 C 643.6875 653.683594 642.046875 654.136719 640.398438 654.550781 C 638.75 654.960938 637.089844 655.335938 635.421875 655.667969 C 633.753906 656 632.078125 656.289062 630.398438 656.539062 C 628.714844 656.789062 627.027344 656.996094 625.335938 657.164062 C 623.640625 657.328125 621.945312 657.453125 620.25 657.539062 C 618.550781 657.621094 616.851562 657.664062 615.148438 657.664062 C 613.449219 657.664062 611.75 657.621094 610.050781 657.539062 C 608.351562 657.453125 606.65625 657.328125 604.964844 657.164062 C 603.273438 656.996094 601.585938 656.789062 599.902344 656.539062 C 598.21875 656.289062 596.546875 656 594.878906 655.667969 C 593.210938 655.335938 591.550781 654.960938 589.902344 654.550781 C 588.25 654.136719 586.613281 653.683594 584.984375 653.1875 C 583.359375 652.695312 581.742188 652.164062 580.144531 651.589844 C 578.542969 651.015625 576.957031 650.40625 575.382812 649.753906 C 573.8125 649.101562 572.257812 648.414062 570.722656 647.6875 C 569.183594 646.960938 567.664062 646.195312 566.164062 645.394531 C 564.664062 644.59375 563.1875 643.753906 561.726562 642.878906 C 560.269531 642.003906 558.832031 641.097656 557.417969 640.152344 C 556.003906 639.207031 554.613281 638.226562 553.25 637.214844 C 551.882812 636.203125 550.542969 635.15625 549.226562 634.078125 C 547.914062 632.996094 546.625 631.886719 545.367188 630.746094 C 544.105469 629.601562 542.875 628.429688 541.671875 627.226562 C 540.46875 626.027344 539.296875 624.792969 538.15625 623.535156 C 537.011719 622.273438 535.902344 620.988281 534.824219 619.671875 C 533.746094 618.359375 532.699219 617.015625 531.6875 615.652344 C 530.671875 614.285156 529.695312 612.894531 528.75 611.480469 C 527.804688 610.066406 526.894531 608.632812 526.019531 607.171875 C 525.148438 605.714844 524.308594 604.234375 523.507812 602.734375 C 522.707031 601.234375 521.941406 599.714844 521.214844 598.179688 C 520.488281 596.640625 519.796875 595.085938 519.148438 593.515625 C 518.496094 591.945312 517.882812 590.359375 517.3125 588.757812 C 516.738281 587.15625 516.207031 585.542969 515.710938 583.914062 C 515.21875 582.289062 514.765625 580.648438 514.351562 579 C 513.9375 577.351562 513.566406 575.691406 513.234375 574.023438 C 512.902344 572.355469 512.613281 570.679688 512.363281 569 C 512.113281 567.316406 511.902344 565.628906 511.738281 563.9375 C 511.570312 562.242188 511.445312 560.546875 511.363281 558.851562 C 511.277344 557.152344 511.238281 555.453125 511.238281 553.75 C 511.238281 552.050781 511.277344 550.351562 511.363281 548.652344 C 511.445312 546.953125 511.570312 545.257812 511.738281 543.566406 C 511.902344 541.875 512.113281 540.1875 512.363281 538.503906 C 512.613281 536.820312 512.902344 535.148438 513.234375 533.480469 C 513.566406 531.8125 513.9375 530.152344 514.351562 528.503906 C 514.765625 526.851562 515.21875 525.214844 515.710938 523.585938 C 516.207031 521.960938 516.738281 520.34375 517.3125 518.742188 C 517.882812 517.144531 518.496094 515.554688 519.148438 513.984375 C 519.796875 512.414062 520.488281 510.859375 521.214844 509.324219 C 521.941406 507.785156 522.707031 506.265625 523.507812 504.765625 C 524.308594 503.265625 525.148438 501.789062 526.019531 500.328125 C 526.894531 498.871094 527.804688 497.433594 528.75 496.019531 C 529.695312 494.605469 530.671875 493.214844 531.6875 491.851562 C 532.699219 490.484375 533.746094 489.144531 534.824219 487.828125 C 535.902344 486.515625 537.011719 485.226562 538.15625 483.96875 C 539.296875 482.707031 540.46875 481.476562 541.671875 480.273438 C 542.875 479.070312 544.105469 477.898438 545.367188 476.757812 C 546.625 475.613281 547.914062 474.503906 549.226562 473.425781 C 550.542969 472.347656 551.882812 471.300781 553.25 470.289062 C 554.613281 469.273438 556.003906 468.296875 557.417969 467.351562 C 558.832031 466.40625 560.269531 465.496094 561.726562 464.621094 C 563.1875 463.746094 564.664062 462.910156 566.164062 462.109375 C 567.664062 461.304688 569.183594 460.542969 570.722656 459.816406 C 572.257812 459.089844 573.8125 458.398438 575.382812 457.75 C 576.957031 457.097656 578.542969 456.484375 580.144531 455.914062 C 581.742188 455.339844 583.359375 454.804688 584.984375 454.3125 C 586.613281 453.820312 588.25 453.367188 589.902344 452.953125 C 591.550781 452.539062 593.210938 452.167969 594.878906 451.835938 C 596.546875 451.503906 598.21875 451.210938 599.902344 450.964844 C 601.585938 450.714844 603.273438 450.503906 604.964844 450.339844 C 606.65625 450.171875 608.351562 450.046875 610.050781 449.964844 C 611.75 449.878906 613.449219 449.839844 615.148438 449.839844 C 616.851562 449.839844 618.550781 449.878906 620.25 449.964844 C 621.945312 450.046875 623.640625 450.171875 625.335938 450.339844 C 627.027344 450.503906 628.714844 450.714844 630.398438 450.964844 C 632.078125 451.210938 633.753906 451.503906 635.421875 451.835938 C 637.089844 452.167969 638.75 452.539062 640.398438 452.953125 C 642.046875 453.367188 643.6875 453.820312 645.3125 454.3125 C 646.941406 454.804688 648.554688 455.339844 650.15625 455.914062 C 651.757812 456.484375 653.34375 457.097656 654.914062 457.75 C 656.488281 458.398438 658.039062 459.089844 659.578125 459.816406 C 661.117188 460.542969 662.632812 461.304688 664.132812 462.109375 C 665.632812 462.910156 667.113281 463.746094 668.570312 464.621094 C 670.03125 465.496094 671.464844 466.40625 672.878906 467.351562 C 674.292969 468.296875 675.683594 469.273438 677.050781 470.289062 C 678.417969 471.300781 679.757812 472.347656 681.070312 473.425781 C 682.386719 474.503906 683.671875 475.613281 684.933594 476.757812 C 686.191406 477.898438 687.425781 479.070312 688.628906 480.273438 C 689.828125 481.476562 691 482.707031 692.144531 483.96875 C 693.285156 485.226562 694.394531 486.515625 695.476562 487.828125 C 696.554688 489.144531 697.601562 490.484375 698.613281 491.851562 C 699.625 493.214844 700.605469 494.605469 701.550781 496.019531 C 702.496094 497.433594 703.402344 498.871094 704.277344 500.328125 C 705.152344 501.789062 705.992188 503.265625 706.792969 504.765625 C 707.59375 506.265625 708.359375 507.785156 709.085938 509.324219 C 709.8125 510.859375 710.5 512.414062 711.152344 513.984375 C 711.804688 515.554688 712.414062 517.144531 712.988281 518.742188 C 713.5625 520.34375 714.09375 521.960938 714.585938 523.585938 C 715.082031 525.214844 715.535156 526.851562 715.949219 528.503906 C 716.363281 530.152344 716.734375 531.8125 717.066406 533.480469 C 717.398438 535.148438 717.6875 536.820312 717.9375 538.503906 C 718.1875 540.1875 718.394531 541.875 718.5625 543.566406 C 718.730469 545.257812 718.855469 546.953125 718.9375 548.652344 C 719.019531 550.351562 719.0625 552.050781 719.0625 553.75 Z M 719.0625 553.75 " fill-opacity="1" fill-rule="nonzero"/><path fill="#dd2c00" d="M 615.148438 449.839844 L 615.097656 449.839844 C 658.695312 464.328125 690.199219 505.289062 690.199219 553.75 C 690.199219 602.214844 658.695312 643.171875 615.09375 657.664062 L 615.148438 657.664062 C 672.539062 657.664062 719.0625 611.140625 719.0625 553.75 C 719.0625 496.363281 672.539062 449.839844 615.148438 449.839844 Z M 615.148438 449.839844 " fill-opacity="1" fill-rule="nonzero"/><path fill="#ffffff" d="M 644.015625 553.75 C 644.015625 537.804688 631.09375 524.886719 615.148438 524.886719 C 599.210938 524.886719 586.285156 537.804688 586.285156 553.75 L 511.238281 553.75 C 511.238281 611.140625 557.761719 657.664062 615.148438 657.664062 C 672.539062 657.664062 719.0625 611.140625 719.0625 553.75 Z M 644.015625 553.75 " fill-opacity="1" fill-rule="nonzero"/><path fill="#cfd8dc" d="M 690.199219 553.75 C 690.199219 602.214844 658.695312 643.171875 615.09375 657.664062 L 615.148438 657.664062 C 672.539062 657.664062 719.0625 611.140625 719.0625 553.75 Z M 690.199219 553.75 " fill-opacity="1" fill-rule="nonzero"/><path fill="#37474f" d="M 615.148438 455.609375 C 669.265625 455.609375 713.289062 499.636719 713.289062 553.75 C 713.289062 607.867188 669.265625 651.890625 615.148438 651.890625 C 561.035156 651.890625 517.011719 607.867188 517.011719 553.75 C 517.011719 499.636719 561.035156 455.609375 615.148438 455.609375 M 615.148438 444.066406 C 554.582031 444.066406 505.464844 493.179688 505.464844 553.75 C 505.464844 614.320312 554.582031 663.4375 615.148438 663.4375 C 675.71875 663.4375 724.835938 614.320312 724.835938 553.75 C 724.835938 493.179688 675.71875 444.066406 615.148438 444.066406 Z M 615.148438 444.066406 " fill-opacity="1" fill-rule="nonzero"/><path fill="#37474f" d="M 511.238281 547.976562 L 586.285156 547.976562 L 586.285156 559.523438 L 511.238281 559.523438 Z M 511.238281 547.976562 " fill-opacity="1" fill-rule="nonzero"/><path fill="#37474f" d="M 644.015625 547.976562 L 719.0625 547.976562 L 719.0625 559.523438 L 644.015625 559.523438 Z M 644.015625 547.976562 " fill-opacity="1" fill-rule="nonzero"/><path fill="#37474f" d="M 615.148438 530.660156 C 627.886719 530.660156 638.242188 541.015625 638.242188 553.75 C 638.242188 566.484375 627.886719 576.84375 615.148438 576.84375 C 602.414062 576.84375 592.058594 566.484375 592.058594 553.75 C 592.058594 541.015625 602.414062 530.660156 615.148438 530.660156 M 615.148438 519.113281 C 596.023438 519.113281 580.511719 534.621094 580.511719 553.75 C 580.511719 572.875 596.023438 588.386719 615.148438 588.386719 C 634.28125 588.386719 649.789062 572.875 649.789062 553.75 C 649.789062 534.621094 634.28125 519.113281 615.148438 519.113281 Z M 615.148438 519.113281 " fill-opacity="1" fill-rule="nonzero"/><path fill="#37474f" d="M 626.695312 553.75 C 626.695312 554.507812 626.621094 555.261719 626.472656 556.003906 C 626.324219 556.746094 626.105469 557.46875 625.816406 558.167969 C 625.527344 558.871094 625.171875 559.535156 624.75 560.164062 C 624.328125 560.796875 623.851562 561.378906 623.3125 561.914062 C 622.777344 562.449219 622.195312 562.929688 621.5625 563.351562 C 620.933594 563.773438 620.269531 564.128906 619.566406 564.417969 C 618.867188 564.707031 618.144531 564.925781 617.402344 565.074219 C 616.660156 565.222656 615.90625 565.296875 615.148438 565.296875 C 614.390625 565.296875 613.640625 565.222656 612.898438 565.074219 C 612.152344 564.925781 611.433594 564.707031 610.730469 564.417969 C 610.03125 564.128906 609.367188 563.773438 608.734375 563.351562 C 608.105469 562.929688 607.523438 562.449219 606.984375 561.914062 C 606.449219 561.378906 605.972656 560.796875 605.550781 560.164062 C 605.128906 559.535156 604.773438 558.871094 604.484375 558.167969 C 604.191406 557.46875 603.972656 556.746094 603.824219 556.003906 C 603.679688 555.261719 603.605469 554.507812 603.605469 553.75 C 603.605469 552.992188 603.679688 552.242188 603.824219 551.5 C 603.972656 550.753906 604.191406 550.03125 604.484375 549.332031 C 604.773438 548.632812 605.128906 547.964844 605.550781 547.335938 C 605.972656 546.707031 606.449219 546.121094 606.984375 545.585938 C 607.523438 545.050781 608.105469 544.570312 608.734375 544.152344 C 609.367188 543.730469 610.03125 543.375 610.730469 543.082031 C 611.433594 542.792969 612.152344 542.574219 612.898438 542.425781 C 613.640625 542.277344 614.390625 542.207031 615.148438 542.207031 C 615.90625 542.207031 616.660156 542.277344 617.402344 542.425781 C 618.144531 542.574219 618.867188 542.792969 619.566406 543.082031 C 620.269531 543.375 620.933594 543.730469 621.5625 544.152344 C 622.195312 544.570312 622.777344 545.050781 623.3125 545.585938 C 623.851562 546.121094 624.328125 546.707031 624.75 547.335938 C 625.171875 547.964844 625.527344 548.632812 625.816406 549.332031 C 626.105469 550.03125 626.324219 550.753906 626.472656 551.5 C 626.621094 552.242188 626.695312 552.992188 626.695312 553.75 Z M 626.695312 553.75 " fill-opacity="1" fill-rule="nonzero"/><g clip-path="url(#id4)"><g clip-path="url(#id5)"><path fill="url(#id6)" d="M 474.625 415.199219 L 474.625 692 L 752.597656 692 L 752.597656 415.199219 Z M 474.625 415.199219 " fill-rule="nonzero"/></g></g></svg>